<?xml version="1.0" encoding="UTF-8"?>
<svg width="1124px" height="776px" viewBox="0 0 1124 776" version="1.1" xmlns="http://www.w3.org/2000/svg" xmlns:xlink="http://www.w3.org/1999/xlink">
    <!-- Generator: Sketch 52.5 (67469) - http://www.bohemiancoding.com/sketch -->
    <title>beacon</title>
    <desc>Created with Sketch.</desc>
    <g id="Page-1" stroke="none" stroke-width="1" fill="none" fill-rule="evenodd">
        <g id="beacon" transform="translate(-38.000000, -62.000000)">
            <ellipse id="Oval" fill="#3F3D56" cx="600" cy="801" rx="562" ry="37"></ellipse>
            <ellipse id="Oval" fill="#4285F4" cx="572" cy="278" rx="58" ry="53"></ellipse>
            <path d="M674.5,763.5 C674.5,763.5 551,813 463.5,764.5 L464.31,750.5 L471.85,620.5 L478.98,497.5 L487.5,350.5 L651.5,350.5 L659.38,497.5 L665.98,620.5 L672.95,750.5 L674.5,763.5 Z" id="Path" fill="#3F3D56"></path>
            <g id="Group"></g>
            <path d="M674.5,763.5 C674.5,763.5 561,814 463.5,764.5 L464.31,750.5 L672.95,750.5 L674.5,763.5 Z" id="Path" fill="#4285F4"></path>
            <polygon id="Path" fill="#4285F4" points="665.98 620.5 471.85 620.5 478.98 497.5 659.38 497.5"></polygon>
            <rect id="Rectangle" fill="#3F3D56" x="477.5" y="334.5" width="184" height="20"></rect>
            <rect id="Rectangle" fill="#3F3D56" x="477.5" y="267.5" width="184" height="20"></rect>
            <rect id="Rectangle" fill="#3F3D56" x="493.5" y="287.5" width="11" height="52"></rect>
            <rect id="Rectangle" fill="#3F3D56" x="522.5" y="287.5" width="11" height="52"></rect>
            <rect id="Rectangle" fill="#3F3D56" x="551.5" y="287.5" width="11" height="52"></rect>
            <rect id="Rectangle" fill="#3F3D56" x="580.5" y="287.5" width="11" height="52"></rect>
            <rect id="Rectangle" fill="#3F3D56" x="609.5" y="287.5" width="11" height="52"></rect>
            <rect id="Rectangle" fill="#3F3D56" x="522.5" y="208" width="11" height="68.5"></rect>
            <rect id="Rectangle" fill="#3F3D56" x="551.5" y="208" width="11" height="68.5"></rect>
            <rect id="Rectangle" fill="#3F3D56" x="580.5" y="208" width="11" height="68.5"></rect>
            <rect id="Rectangle" fill="#3F3D56" x="609.5" y="208" width="11" height="68.5"></rect>
            <rect id="Rectangle" fill="#3F3D56" x="638.5" y="287.5" width="11" height="52"></rect>
            <rect id="Rectangle" fill="#3F3D56" x="494" y="216" width="11" height="61"></rect>
            <rect id="Rectangle" fill="#3F3D56" x="639" y="216" width="11" height="61"></rect>
            <polygon id="Path" fill="#3F3D56" points="662 227.5 478 227.5 478 167.5 570 93 662 167.5"></polygon>
            <circle id="Oval" fill="#4285F4" opacity="0.3" cx="572" cy="277" r="154.69512"></circle>
            <circle id="Oval" fill="#4285F4" opacity="0.3" cx="572" cy="277" r="215"></circle>
            <path d="M89.40863,754.73447 C95.4818,777.18452 116.28375,791.08841 116.28375,791.08841 C116.28375,791.08841 127.23916,768.59356 121.166,746.1435 C115.09284,723.69344 94.29088,709.78956 94.29088,709.78956 C94.29088,709.78956 83.33547,732.28441 89.40863,754.73447 Z" id="Path" fill="#8985A8"></path>
            <path d="M98.33272,749.90971 C114.99756,766.13226 117.03305,791.07011 117.03305,791.07011 C117.03305,791.07011 92.04949,789.706 75.38464,773.48344 C58.71979,757.26088 56.68431,732.323 56.68431,732.323 C56.68431,732.323 81.66787,733.68715 98.33272,749.90971 Z" id="Path" fill="#3F3D56"></path>
            <path d="M354.75735,722.4082 C345.80421,755.50438 315.13769,776.00168 315.13769,776.00168 C315.13769,776.00168 298.98707,742.83946 307.94021,709.74328 C316.89335,676.6471 347.55987,656.1498 347.55987,656.1498 C347.55987,656.1498 363.71049,689.312 354.75735,722.4082 Z" id="Path" fill="#8985A8"></path>
            <path d="M273.30876,722.4082 C282.2619,755.50438 312.92842,776.00168 312.92842,776.00168 C312.92842,776.00168 329.07904,742.83946 320.1259,709.74328 C311.17276,676.6471 280.50623,656.1498 280.50623,656.1498 C280.50623,656.1498 264.35562,689.312 273.30876,722.4082 Z" id="Path" fill="#8985A8"></path>
            <path d="M286.46476,715.29547 C311.03231,739.21099 314.03305,775.9747 314.03305,775.9747 C314.03305,775.9747 277.20194,773.9637 252.6344,750.04819 C228.06686,726.13268 225.06611,689.369 225.06611,689.369 C225.06611,689.369 261.89722,691.38 286.46476,715.29547 Z" id="Path" fill="#3F3D56"></path>
            <path d="M341.60134,715.29547 C317.0338,739.211 314.03305,775.9747 314.03305,775.9747 C314.03305,775.9747 350.86417,773.9637 375.43171,750.04819 C399.99925,726.13268 403,689.369 403,689.369 C403,689.369 366.16889,691.38 341.60134,715.29547 Z" id="Path" fill="#3F3D56"></path>
        </g>
    </g>
</svg>