<svg width="179" height="26" viewBox="0 0 179 26" fill="none" xmlns="http://www.w3.org/2000/svg">
<rect width="179" height="26" rx="3" fill="#FBBE00"/>
<path d="M14.908 8.024C12.292 8.024 10.408 9.98 10.408 12.584C10.408 15.2 12.292 17.156 14.908 17.156C16.228 17.156 17.272 16.772 18.148 15.812L16.996 14.468C16.528 15.032 15.844 15.476 14.908 15.476C13.324 15.476 12.268 14.264 12.268 12.584C12.268 10.904 13.324 9.704 14.908 9.704C15.832 9.704 16.504 10.136 16.972 10.688L18.124 9.344C17.284 8.468 16.324 8.024 14.908 8.024ZM24.9198 8.18H19.2198V17H25.0158V15.32H21.0558V13.316H24.4158V11.744H21.0558V9.86H24.9198V8.18ZM33.3885 17L31.3365 13.58C32.2845 13.148 32.9445 12.284 32.9445 11.036C32.9445 9.212 31.5045 8.18 29.8245 8.18H26.3445V17H28.1805V13.892H29.3925L31.2405 17H33.3885ZM28.1805 9.764H29.6445C30.5085 9.764 31.0845 10.22 31.0845 11.036C31.0845 11.864 30.5085 12.308 29.6445 12.308H28.1805V9.764ZM41.1298 8.18H33.5818V9.8H36.4378V17H38.2738V9.8H41.1298V8.18ZM44.0011 8.18H42.1651V17H44.0011V8.18ZM51.2947 8.18H45.7627V17H47.5987V13.448H50.6587V11.876H47.5987V9.86H51.2947V8.18ZM54.255 8.18H52.419V17H54.255V8.18ZM61.7166 8.18H56.0166V17H61.8126V15.32H57.8526V13.316H61.2126V11.744H57.8526V9.86H61.7166V8.18ZM65.9613 8.18H63.1533V17H65.9613C68.9973 17 70.7853 15.368 70.7853 12.584C70.7853 9.8 68.9733 8.18 65.9613 8.18ZM65.9013 9.872C67.8813 9.872 68.9253 10.868 68.9253 12.596C68.9253 14.312 67.8933 15.32 65.9013 15.32H64.9893V9.872H65.9013ZM78.3181 8.18H74.7901V17H76.6261V14.012H78.3181C80.0101 14.012 81.4261 12.968 81.4261 11.096C81.4261 9.224 80.0101 8.18 78.3181 8.18ZM78.1381 9.764C78.9901 9.764 79.5541 10.244 79.5541 11.096C79.5541 11.984 78.9901 12.428 78.1381 12.428H76.6261V9.764H78.1381ZM89.6268 17L87.5748 13.58C88.5228 13.148 89.1828 12.284 89.1828 11.036C89.1828 9.212 87.7428 8.18 86.0628 8.18H82.5828V17H84.4188V13.892H85.6308L87.4788 17H89.6268ZM84.4188 9.764H85.8828C86.7468 9.764 87.3228 10.22 87.3228 11.036C87.3228 11.864 86.7468 12.308 85.8828 12.308H84.4188V9.764ZM96.2752 8.18H90.5752V17H96.3712V15.32H92.4112V13.316H95.7712V11.744H92.4112V9.86H96.2752V8.18ZM101.024 12.98H97.2799V14.6H101.024V12.98ZM106.503 8.024C103.899 8.024 101.967 9.956 101.967 12.608C101.967 15.236 103.899 17.156 106.503 17.156C109.095 17.156 111.039 15.236 111.039 12.608C111.039 9.956 109.095 8.024 106.503 8.024ZM106.503 9.704C108.063 9.704 109.167 10.904 109.167 12.608C109.167 14.276 108.063 15.476 106.503 15.476C104.931 15.476 103.827 14.276 103.827 12.608C103.827 10.904 104.931 9.704 106.503 9.704ZM122.229 8.18H120.189L118.509 12.896L116.613 8.18H116.565L114.657 12.896L112.977 8.18H110.949L114.513 17.132H114.561L116.589 12.308L118.605 17.132H118.653L122.229 8.18ZM123.178 8.024H123.13V17H124.966V12.092L130.174 17.156H130.222V8.18H128.386V13.076L123.178 8.024ZM137.678 8.18H131.978V17H137.774V15.32H133.814V13.316H137.174V11.744H133.814V9.86H137.678V8.18ZM141.922 8.18H139.114V17H141.922C144.958 17 146.746 15.368 146.746 12.584C146.746 9.8 144.934 8.18 141.922 8.18ZM141.862 9.872C143.842 9.872 144.886 10.868 144.886 12.596C144.886 14.312 143.854 15.32 141.862 15.32H140.95V9.872H141.862Z" fill="#343434"/>
<mask id="mask0_2940_50736" style="mask-type:alpha" maskUnits="userSpaceOnUse" x="158" y="5" width="16" height="16">
<rect x="158" y="5" width="16" height="16" fill="#D9D9D9"/>
</mask>
<g mask="url(#mask0_2940_50736)">
<path d="M164.983 14.5999L166 13.8332L166.983 14.5999C167.083 14.6665 167.181 14.6665 167.275 14.5999C167.37 14.5332 167.4 14.4443 167.367 14.3332L166.983 13.0832L168.033 12.2665C168.133 12.1888 168.161 12.0914 168.117 11.9745C168.072 11.8581 167.989 11.7999 167.867 11.7999H166.65L166.233 10.5332C166.189 10.4221 166.111 10.3665 166 10.3665C165.889 10.3665 165.811 10.4221 165.767 10.5332L165.35 11.7999H164.133C164.011 11.7999 163.928 11.8581 163.883 11.9745C163.839 12.0914 163.867 12.1888 163.967 12.2665L164.983 13.0832L164.6 14.3332C164.567 14.4554 164.597 14.5499 164.692 14.6165C164.786 14.6832 164.883 14.6776 164.983 14.5999ZM166 19.2665H165.841C165.792 19.2665 165.75 19.2554 165.717 19.2332C164.35 18.7888 163.222 17.9276 162.333 16.6499C161.444 15.3721 161 13.9554 161 12.3999V9.39987C161 9.14431 161.072 8.91654 161.217 8.71654C161.361 8.51654 161.55 8.36654 161.783 8.26654L165.583 6.84987C165.728 6.80543 165.867 6.7832 166 6.7832C166.133 6.7832 166.272 6.80543 166.417 6.84987L170.217 8.26654C170.45 8.36654 170.639 8.51654 170.783 8.71654C170.928 8.91654 171 9.14431 171 9.39987V12.3999C171 13.9554 170.556 15.3721 169.667 16.6499C168.778 17.9276 167.65 18.7888 166.283 19.2332C166.239 19.2554 166.144 19.2665 166 19.2665ZM166 18.2665C167.156 17.8999 168.111 17.1665 168.867 16.0665C169.622 14.9665 170 13.7443 170 12.3999V9.34987C170 9.31654 169.992 9.28587 169.975 9.25787C169.958 9.23031 169.933 9.21654 169.9 9.21654L166.1 7.79987C166.067 7.78876 166.033 7.7832 166 7.7832C165.967 7.7832 165.933 7.78876 165.9 7.79987L162.1 9.21654C162.067 9.21654 162.042 9.23031 162.025 9.25787C162.008 9.28587 162 9.31654 162 9.34987V12.3999C162 13.7443 162.378 14.9665 163.133 16.0665C163.889 17.1665 164.844 17.8999 166 18.2665Z" fill="#343434"/>
</g>
</svg>
