<svg width="928" height="509" viewBox="0 0 928 509" fill="none" xmlns="http://www.w3.org/2000/svg">
<line y1="0.5" x2="928" y2="0.5" stroke="#E5E5E5"/>
<path d="M9.15 49.95H2.34V72H9.15C16.71 72 21.09 67.92 21.09 60.96C21.09 54 16.65 49.95 9.15 49.95ZM9.06 53.43C14.4 53.43 17.31 56.19 17.31 60.96C17.31 65.76 14.43 68.55 9.06 68.55H6.09V53.43H9.06ZM31.0465 56.58C26.6665 56.58 23.6365 59.91 23.6365 64.47C23.6365 69 26.6965 72.3 31.3765 72.3C34.1665 72.3 36.2065 71.25 37.6765 69.42L35.2765 67.53C34.5565 68.49 33.2365 69.24 31.4365 69.24C28.9165 69.24 27.4465 67.92 27.2965 65.55H37.9765V64.29C37.9765 60.06 35.6665 56.58 31.0465 56.58ZM30.9865 59.46C33.1165 59.46 34.3165 60.9 34.4065 62.97H27.2965C27.4165 60.87 28.8565 59.46 30.9865 59.46ZM46.9399 56.58C42.8599 56.58 40.1599 59.88 40.1599 64.44C40.1599 68.97 42.8599 72.3 46.9399 72.3C49.1899 72.3 50.6299 71.37 51.4699 70.23L51.6499 72H54.8899V56.88H51.6499L51.4699 58.65C50.6299 57.51 49.1899 56.58 46.9399 56.58ZM47.7199 59.76C49.4599 59.76 50.4799 60.72 51.2899 62.01V66.87C50.4799 68.16 49.4599 69.12 47.7199 69.12C45.3799 69.12 43.8199 67.29 43.8199 64.44C43.8199 61.59 45.3799 59.76 47.7199 59.76ZM62.5052 49.2H58.9052V72H62.5052V49.2ZM80.5137 49.56C75.9837 49.56 72.8937 52.23 72.8937 56.16C72.8937 59.43 74.5137 61.35 80.0337 62.55C83.5737 63.27 84.8037 64.2 84.8037 65.85C84.8037 67.89 83.1237 69 80.5737 69C78.2337 69 75.7437 67.98 74.2437 66.42L72.1737 69.51C74.3037 71.37 77.1537 72.39 80.4537 72.39C85.4637 72.39 88.5537 69.6 88.5537 65.49C88.5537 62.13 86.6637 60.3 81.1137 59.1C77.6037 58.38 76.6437 57.6 76.6437 55.95C76.6437 53.91 78.2937 52.95 80.4837 52.95C82.7937 52.95 84.8337 53.94 86.3037 55.08L88.1037 51.93C86.2137 50.55 83.5737 49.56 80.5137 49.56ZM104.978 56.88H101.378V66.78C100.598 67.89 99.6077 68.88 97.8977 68.88C96.1577 68.88 95.1377 67.53 95.1377 65.58V56.88H91.5077V65.76C91.5077 69.72 93.4277 72.3 96.9377 72.3C99.2477 72.3 100.718 71.37 101.558 70.26L101.738 72H104.978V56.88ZM126.733 56.58C124.303 56.58 122.653 57.69 121.513 59.25C120.613 57.57 119.053 56.58 116.893 56.58C114.703 56.58 113.203 57.54 112.363 58.62L112.213 56.88H108.943V72H112.573V62.07C113.353 60.96 114.373 60 115.903 60C117.673 60 118.753 61.35 118.753 63.36V72H122.353V62.82C122.353 62.61 122.353 62.37 122.323 62.16C123.103 60.96 124.153 60 125.713 60C127.483 60 128.533 61.35 128.533 63.36V72H132.193V63.15C132.193 59.19 130.213 56.58 126.733 56.58ZM153.774 56.58C151.344 56.58 149.694 57.69 148.554 59.25C147.654 57.57 146.094 56.58 143.934 56.58C141.744 56.58 140.244 57.54 139.404 58.62L139.254 56.88H135.984V72H139.614V62.07C140.394 60.96 141.414 60 142.944 60C144.714 60 145.794 61.35 145.794 63.36V72H149.394V62.82C149.394 62.61 149.394 62.37 149.364 62.16C150.144 60.96 151.194 60 152.754 60C154.524 60 155.574 61.35 155.574 63.36V72H159.234V63.15C159.234 59.19 157.254 56.58 153.774 56.58ZM168.815 56.58C164.735 56.58 162.035 59.88 162.035 64.44C162.035 68.97 164.735 72.3 168.815 72.3C171.065 72.3 172.505 71.37 173.345 70.23L173.525 72H176.765V56.88H173.525L173.345 58.65C172.505 57.51 171.065 56.58 168.815 56.58ZM169.595 59.76C171.335 59.76 172.355 60.72 173.165 62.01V66.87C172.355 68.16 171.335 69.12 169.595 69.12C167.255 69.12 165.695 67.29 165.695 64.44C165.695 61.59 167.255 59.76 169.595 59.76ZM188.61 56.58C186.42 56.58 184.92 57.69 184.17 58.89L183.96 56.88H180.72V72H184.35V62.46C185.28 61.14 186.45 60.18 188.28 60.18H188.61V56.58ZM205.371 56.88H201.501L197.241 65.67L193.071 56.88H189.201L195.321 68.91L189.861 78.9H193.971L205.371 56.88Z" fill="#343434"/>
<path d="M598.06 143.528H598.004L593.104 151.536L588.204 143.528H588.148V154H589.576V148.316L593.062 154.084H593.16L596.632 148.316V154H598.06V143.528ZM603.311 146.832C601.225 146.832 599.713 148.386 599.713 150.5C599.713 152.614 601.225 154.14 603.311 154.14C605.397 154.14 606.923 152.614 606.923 150.5C606.923 148.386 605.397 146.832 603.311 146.832ZM603.311 148.05C604.599 148.05 605.537 149.086 605.537 150.5C605.537 151.9 604.599 152.922 603.311 152.922C602.023 152.922 601.099 151.9 601.099 150.5C601.099 149.086 602.023 148.05 603.311 148.05ZM611.92 146.832C610.842 146.832 610.1 147.308 609.694 147.826L609.638 146.972H608.392V154H609.764V149.254C610.198 148.638 610.758 148.134 611.584 148.134C612.578 148.134 613.208 148.862 613.208 149.926V154H614.58V149.842C614.58 148.036 613.614 146.832 611.92 146.832ZM616.781 152.222C616.655 152.222 616.501 152.25 616.389 152.292V156.128H616.445L617.621 153.776C617.705 153.608 617.789 153.426 617.789 153.16C617.789 152.642 617.341 152.222 616.781 152.222ZM625.657 143.528C624.047 143.528 622.717 144.676 622.717 146.3C622.717 147.308 623.221 148.12 623.977 148.554C622.969 149.002 622.283 149.954 622.283 151.088C622.283 152.894 623.809 154.182 625.657 154.182C627.505 154.182 629.045 152.894 629.045 151.088C629.045 149.954 628.331 149.016 627.323 148.54C628.079 148.106 628.597 147.294 628.597 146.3C628.597 144.676 627.267 143.528 625.657 143.528ZM625.657 144.76C626.567 144.76 627.295 145.446 627.295 146.356C627.295 147.322 626.567 148.022 625.657 148.022C624.747 148.022 624.019 147.322 624.019 146.356C624.019 145.446 624.747 144.76 625.657 144.76ZM625.657 149.254C626.749 149.254 627.631 150.052 627.631 151.116C627.631 152.166 626.749 152.95 625.657 152.95C624.565 152.95 623.697 152.166 623.697 151.116C623.697 150.052 624.565 149.254 625.657 149.254ZM636.25 143.724H634.864L629.754 154H631.168L636.25 143.724ZM639.8 143.528C638.106 143.528 637.056 144.452 636.706 146.216L637.966 146.51C638.19 145.348 638.764 144.788 639.8 144.788C640.794 144.788 641.536 145.446 641.536 146.566C641.536 147.504 641.298 148.106 640.556 149.044L636.748 153.916V154H643.062V152.74H639.198L641.648 149.758C642.488 148.722 642.936 147.868 642.936 146.594C642.936 144.788 641.662 143.528 639.8 143.528ZM647.006 143.528C645.312 143.528 644.262 144.452 643.912 146.216L645.172 146.51C645.396 145.348 645.97 144.788 647.006 144.788C648 144.788 648.742 145.446 648.742 146.566C648.742 147.504 648.504 148.106 647.762 149.044L643.954 153.916V154H650.268V152.74H646.404L648.854 149.758C649.694 148.722 650.142 147.868 650.142 146.594C650.142 144.788 648.868 143.528 647.006 143.528ZM658.877 149.646H654.593V150.92H658.877V149.646ZM671.562 143.71H662.924V144.984H666.522V154H667.95V144.984H671.562V143.71ZM677.138 146.972H675.766V151.718C675.332 152.32 674.814 152.838 673.932 152.838C673.008 152.838 672.448 152.124 672.448 151.088V146.972H671.076V151.158C671.076 152.95 671.972 154.14 673.582 154.14C674.716 154.14 675.416 153.678 675.836 153.146L675.892 154H677.138V146.972ZM681.973 146.832C679.999 146.832 678.613 148.386 678.613 150.5C678.613 152.614 679.985 154.14 682.155 154.14C683.429 154.14 684.339 153.65 685.011 152.824L684.101 152.068C683.751 152.558 683.079 152.95 682.155 152.95C680.839 152.95 680.083 152.236 679.999 150.976H685.151V150.43C685.151 148.456 684.073 146.832 681.973 146.832ZM681.973 148.008C683.107 148.008 683.751 148.75 683.793 149.856H679.999C680.069 148.736 680.839 148.008 681.973 148.008ZM686.917 152.222C686.791 152.222 686.637 152.25 686.525 152.292V156.128H686.581L687.757 153.776C687.841 153.608 687.925 153.426 687.925 153.16C687.925 152.642 687.477 152.222 686.917 152.222ZM695.794 143.528C694.184 143.528 692.854 144.676 692.854 146.3C692.854 147.308 693.358 148.12 694.114 148.554C693.106 149.002 692.42 149.954 692.42 151.088C692.42 152.894 693.946 154.182 695.794 154.182C697.642 154.182 699.182 152.894 699.182 151.088C699.182 149.954 698.468 149.016 697.46 148.54C698.216 148.106 698.734 147.294 698.734 146.3C698.734 144.676 697.404 143.528 695.794 143.528ZM695.794 144.76C696.704 144.76 697.432 145.446 697.432 146.356C697.432 147.322 696.704 148.022 695.794 148.022C694.884 148.022 694.156 147.322 694.156 146.356C694.156 145.446 694.884 144.76 695.794 144.76ZM695.794 149.254C696.886 149.254 697.768 150.052 697.768 151.116C697.768 152.166 696.886 152.95 695.794 152.95C694.702 152.95 693.834 152.166 693.834 151.116C693.834 150.052 694.702 149.254 695.794 149.254ZM706.386 143.724H705L699.89 154H701.304L706.386 143.724ZM710.147 143.528C708.523 143.528 707.557 144.438 707.095 145.74L708.313 146.258C708.607 145.334 709.195 144.788 710.133 144.788C711.085 144.788 711.785 145.418 711.785 146.44C711.785 147.504 710.987 148.036 710.133 148.036H708.985V149.254H710.105C711.281 149.254 712.107 150.024 712.107 151.06C712.107 152.194 711.351 152.922 710.259 152.922C709.083 152.922 708.509 152.292 708.187 151.298L706.927 151.634C707.431 153.244 708.439 154.182 710.259 154.182C712.219 154.182 713.493 152.922 713.493 151.06C713.493 149.87 712.821 149.03 711.785 148.638C712.583 148.274 713.171 147.602 713.171 146.454C713.171 144.746 711.939 143.528 710.147 143.528ZM718.087 143.528C715.777 143.528 714.475 145.6 714.475 148.848C714.475 152.11 715.777 154.182 718.087 154.182C720.383 154.182 721.685 152.11 721.685 148.848C721.685 145.6 720.383 143.528 718.087 143.528ZM718.087 144.774C719.557 144.774 720.271 146.384 720.271 148.848C720.271 151.326 719.557 152.936 718.087 152.936C716.603 152.936 715.889 151.326 715.889 148.848C715.889 146.384 716.603 144.774 718.087 144.774Z" fill="#707070"/>
<path d="M591.256 123.71H588.148V134H591.256C594.756 134 596.786 132.096 596.786 128.848C596.786 125.6 594.728 123.71 591.256 123.71ZM591.214 125.04C593.86 125.04 595.344 126.44 595.344 128.848C595.344 131.27 593.888 132.684 591.214 132.684H589.576V125.04H591.214ZM601.391 126.832C599.417 126.832 598.031 128.386 598.031 130.5C598.031 132.614 599.403 134.14 601.573 134.14C602.847 134.14 603.757 133.65 604.429 132.824L603.519 132.068C603.169 132.558 602.497 132.95 601.573 132.95C600.257 132.95 599.501 132.236 599.417 130.976H604.569V130.43C604.569 128.456 603.491 126.832 601.391 126.832ZM601.391 128.008C602.525 128.008 603.169 128.75 603.211 129.856H599.417C599.487 128.736 600.257 128.008 601.391 128.008ZM607.4 123.36H606.028V134H607.4V123.36ZM610.076 123.808C609.558 123.808 609.18 124.2 609.18 124.704C609.18 125.222 609.558 125.6 610.076 125.6C610.58 125.6 610.972 125.222 610.972 124.704C610.972 124.2 610.58 123.808 610.076 123.808ZM610.762 126.972H609.39V134H610.762V126.972ZM619.054 126.972H617.64L615.414 131.48L613.202 126.972H611.76L615.386 134.14H615.442L619.054 126.972ZM622.582 126.832C620.608 126.832 619.222 128.386 619.222 130.5C619.222 132.614 620.594 134.14 622.764 134.14C624.038 134.14 624.948 133.65 625.62 132.824L624.71 132.068C624.36 132.558 623.688 132.95 622.764 132.95C621.448 132.95 620.692 132.236 620.608 130.976H625.76V130.43C625.76 128.456 624.682 126.832 622.582 126.832ZM622.582 128.008C623.716 128.008 624.36 128.75 624.402 129.856H620.608C620.678 128.736 621.448 128.008 622.582 128.008ZM630.607 126.832C629.571 126.832 628.871 127.364 628.521 127.924L628.451 126.972H627.205V134H628.577V129.38C629.053 128.694 629.613 128.204 630.481 128.204H630.607V126.832ZM637.025 124.592H635.653V126.972H634.281V128.148H635.653V131.648C635.653 133.272 636.619 134.14 638.117 134.14C638.803 134.14 639.293 133.972 639.629 133.762L639.237 132.642C639.013 132.754 638.691 132.894 638.187 132.894C637.515 132.894 637.025 132.446 637.025 131.648V128.148H639.237V126.972H637.025V124.592ZM643.779 126.832C641.693 126.832 640.181 128.386 640.181 130.5C640.181 132.614 641.693 134.14 643.779 134.14C645.865 134.14 647.391 132.614 647.391 130.5C647.391 128.386 645.865 126.832 643.779 126.832ZM643.779 128.05C645.067 128.05 646.005 129.086 646.005 130.5C646.005 131.9 645.067 132.922 643.779 132.922C642.491 132.922 641.567 131.9 641.567 130.5C641.567 129.086 642.491 128.05 643.779 128.05ZM658.525 126.972H657.097L654.857 131.536L652.659 126.972H651.231L654.129 132.852L651.819 137.22H653.387L658.525 126.972ZM662.291 126.832C660.205 126.832 658.693 128.386 658.693 130.5C658.693 132.614 660.205 134.14 662.291 134.14C664.377 134.14 665.903 132.614 665.903 130.5C665.903 128.386 664.377 126.832 662.291 126.832ZM662.291 128.05C663.579 128.05 664.517 129.086 664.517 130.5C664.517 131.9 663.579 132.922 662.291 132.922C661.003 132.922 660.079 131.9 660.079 130.5C660.079 129.086 661.003 128.05 662.291 128.05ZM673.365 126.972H671.993V131.718C671.559 132.32 671.041 132.838 670.159 132.838C669.235 132.838 668.675 132.124 668.675 131.088V126.972H667.303V131.158C667.303 132.95 668.199 134.14 669.809 134.14C670.943 134.14 671.643 133.678 672.063 133.146L672.119 134H673.365V126.972ZM678.732 126.832C677.696 126.832 676.996 127.364 676.646 127.924L676.576 126.972H675.33V134H676.702V129.38C677.178 128.694 677.738 128.204 678.606 128.204H678.732V126.832ZM684.618 123.36H683.246V134H684.618V129.254C685.052 128.638 685.612 128.134 686.438 128.134C687.432 128.134 688.062 128.862 688.062 129.926V134H689.434V129.842C689.434 128.036 688.468 126.832 686.774 126.832C685.71 126.832 685.108 127.21 684.618 127.742V123.36ZM694.42 126.832C692.334 126.832 690.822 128.386 690.822 130.5C690.822 132.614 692.334 134.14 694.42 134.14C696.506 134.14 698.032 132.614 698.032 130.5C698.032 128.386 696.506 126.832 694.42 126.832ZM694.42 128.05C695.708 128.05 696.646 129.086 696.646 130.5C696.646 131.9 695.708 132.922 694.42 132.922C693.132 132.922 692.208 131.9 692.208 130.5C692.208 129.086 693.132 128.05 694.42 128.05ZM707.691 126.832C706.529 126.832 705.703 127.364 705.171 128.12C704.765 127.308 704.023 126.832 703.001 126.832C701.937 126.832 701.209 127.308 700.803 127.826L700.747 126.972H699.501V134H700.873V129.24C701.321 128.638 701.853 128.134 702.651 128.134C703.589 128.134 704.177 128.862 704.177 129.926V134H705.549V129.73C705.549 129.59 705.535 129.436 705.521 129.282C705.969 128.638 706.529 128.134 707.327 128.134C708.265 128.134 708.853 128.862 708.853 129.926V134H710.239V129.842C710.239 128.036 709.301 126.832 707.691 126.832ZM714.991 126.832C713.017 126.832 711.631 128.386 711.631 130.5C711.631 132.614 713.003 134.14 715.173 134.14C716.447 134.14 717.357 133.65 718.029 132.824L717.119 132.068C716.769 132.558 716.097 132.95 715.173 132.95C713.857 132.95 713.101 132.236 713.017 130.976H718.169V130.43C718.169 128.456 717.091 126.832 714.991 126.832ZM714.991 128.008C716.125 128.008 716.769 128.75 716.811 129.856H713.017C713.087 128.736 713.857 128.008 714.991 128.008Z" fill="#343434"/>
<path d="M869.248 141.416C869.248 139.624 868.304 138.584 865.248 137.96C863.504 137.592 863.072 137.224 863.072 136.52C863.072 135.672 863.856 135.24 864.896 135.24C866.144 135.24 867.184 135.768 867.952 136.36L869.12 134.296C868.336 133.72 867.216 133.272 865.968 133.096V131.096H864.016V133.096C861.984 133.416 860.624 134.808 860.624 136.664C860.624 138.376 861.488 139.528 864.528 140.168C866.288 140.52 866.8 140.952 866.8 141.656C866.8 142.52 866.096 143 864.88 143C863.664 143 862.352 142.456 861.568 141.624L860.24 143.64C861.216 144.504 862.528 145.032 864.016 145.176V147.064H865.968V145.112C868.032 144.744 869.248 143.352 869.248 141.416ZM877.446 133.24H870.854V139.432L872.47 140.168C872.806 139.864 873.286 139.56 874.022 139.56C875.062 139.56 875.766 140.264 875.766 141.32C875.766 142.36 875.078 143.096 874.134 143.096C873.19 143.096 872.598 142.552 872.246 141.656L870.31 142.664C870.982 144.312 872.278 145.208 874.182 145.208C876.63 145.208 878.15 143.624 878.15 141.432C878.15 138.936 876.47 137.576 874.246 137.576C873.814 137.576 873.478 137.656 873.222 137.752V135.352H877.446V133.24ZM883.409 133.032C880.737 133.032 879.153 135.4 879.153 139.112C879.153 142.84 880.737 145.208 883.409 145.208C886.065 145.208 887.665 142.84 887.665 139.112C887.665 135.4 886.065 133.032 883.409 133.032ZM883.409 135.128C884.689 135.128 885.249 136.712 885.249 139.112C885.249 141.528 884.689 143.112 883.409 143.112C882.113 143.112 881.569 141.528 881.569 139.112C881.569 136.712 882.113 135.128 883.409 135.128ZM892.924 133.032C890.252 133.032 888.668 135.4 888.668 139.112C888.668 142.84 890.252 145.208 892.924 145.208C895.58 145.208 897.18 142.84 897.18 139.112C897.18 135.4 895.58 133.032 892.924 133.032ZM892.924 135.128C894.204 135.128 894.764 136.712 894.764 139.112C894.764 141.528 894.204 143.112 892.924 143.112C891.628 143.112 891.084 141.528 891.084 139.112C891.084 136.712 891.628 135.128 892.924 135.128Z" fill="#343434"/>
<path fill-rule="evenodd" clip-rule="evenodd" d="M555 150.25C548.796 150.25 543.75 145.204 543.75 139C543.75 132.796 548.796 127.75 555 127.75C561.204 127.75 566.25 132.796 566.25 139C566.25 145.204 561.204 150.25 555 150.25" fill="white"/>
<path fill-rule="evenodd" clip-rule="evenodd" d="M555 127C548.373 127 543 132.373 543 139C543 145.627 548.373 151 555 151C561.627 151 567 145.627 567 139C567 132.373 561.627 127 555 127M555 128.5C560.79 128.5 565.5 133.212 565.5 139C565.5 144.788 560.79 149.5 555 149.5C549.21 149.5 544.5 144.788 544.5 139C544.5 133.212 549.21 128.5 555 128.5" fill="#C2C2C2"/>
<path fill-rule="evenodd" clip-rule="evenodd" d="M561.375 139C561.375 142.522 558.52 145.375 555 145.375C551.48 145.375 548.625 142.522 548.625 139C548.625 135.478 551.48 132.625 555 132.625C558.52 132.625 561.375 135.478 561.375 139" fill="#00ADEE"/>
<rect x="533.5" y="109.5" width="394" height="59" rx="9.5" stroke="#E5E5E5"/>
<path d="M887.248 211.416C887.248 209.624 886.304 208.584 883.248 207.96C881.504 207.592 881.072 207.224 881.072 206.52C881.072 205.672 881.856 205.24 882.896 205.24C884.144 205.24 885.184 205.768 885.952 206.36L887.12 204.296C886.336 203.72 885.216 203.272 883.968 203.096V201.096H882.016V203.096C879.984 203.416 878.624 204.808 878.624 206.664C878.624 208.376 879.488 209.528 882.528 210.168C884.288 210.52 884.8 210.952 884.8 211.656C884.8 212.52 884.096 213 882.88 213C881.664 213 880.352 212.456 879.568 211.624L878.24 213.64C879.216 214.504 880.528 215.032 882.016 215.176V217.064H883.968V215.112C886.032 214.744 887.248 213.352 887.248 211.416ZM892.534 203.032C889.862 203.032 888.278 205.4 888.278 209.112C888.278 212.84 889.862 215.208 892.534 215.208C895.19 215.208 896.79 212.84 896.79 209.112C896.79 205.4 895.19 203.032 892.534 203.032ZM892.534 205.128C893.814 205.128 894.374 206.712 894.374 209.112C894.374 211.528 893.814 213.112 892.534 213.112C891.238 213.112 890.694 211.528 890.694 209.112C890.694 206.712 891.238 205.128 892.534 205.128Z" fill="#343434"/>
<path d="M598.06 213.528H598.004L593.104 221.536L588.204 213.528H588.148V224H589.576V218.316L593.062 224.084H593.16L596.632 218.316V224H598.06V213.528ZM603.311 216.832C601.225 216.832 599.713 218.386 599.713 220.5C599.713 222.614 601.225 224.14 603.311 224.14C605.397 224.14 606.923 222.614 606.923 220.5C606.923 218.386 605.397 216.832 603.311 216.832ZM603.311 218.05C604.599 218.05 605.537 219.086 605.537 220.5C605.537 221.9 604.599 222.922 603.311 222.922C602.023 222.922 601.099 221.9 601.099 220.5C601.099 219.086 602.023 218.05 603.311 218.05ZM611.92 216.832C610.842 216.832 610.1 217.308 609.694 217.826L609.638 216.972H608.392V224H609.764V219.254C610.198 218.638 610.758 218.134 611.584 218.134C612.578 218.134 613.208 218.862 613.208 219.926V224H614.58V219.842C614.58 218.036 613.614 216.832 611.92 216.832ZM616.781 222.222C616.655 222.222 616.501 222.25 616.389 222.292V226.128H616.445L617.621 223.776C617.705 223.608 617.789 223.426 617.789 223.16C617.789 222.642 617.341 222.222 616.781 222.222ZM625.657 213.528C624.047 213.528 622.717 214.676 622.717 216.3C622.717 217.308 623.221 218.12 623.977 218.554C622.969 219.002 622.283 219.954 622.283 221.088C622.283 222.894 623.809 224.182 625.657 224.182C627.505 224.182 629.045 222.894 629.045 221.088C629.045 219.954 628.331 219.016 627.323 218.54C628.079 218.106 628.597 217.294 628.597 216.3C628.597 214.676 627.267 213.528 625.657 213.528ZM625.657 214.76C626.567 214.76 627.295 215.446 627.295 216.356C627.295 217.322 626.567 218.022 625.657 218.022C624.747 218.022 624.019 217.322 624.019 216.356C624.019 215.446 624.747 214.76 625.657 214.76ZM625.657 219.254C626.749 219.254 627.631 220.052 627.631 221.116C627.631 222.166 626.749 222.95 625.657 222.95C624.565 222.95 623.697 222.166 623.697 221.116C623.697 220.052 624.565 219.254 625.657 219.254ZM636.25 213.724H634.864L629.754 224H631.168L636.25 213.724ZM639.8 213.528C638.106 213.528 637.056 214.452 636.706 216.216L637.966 216.51C638.19 215.348 638.764 214.788 639.8 214.788C640.794 214.788 641.536 215.446 641.536 216.566C641.536 217.504 641.298 218.106 640.556 219.044L636.748 223.916V224H643.062V222.74H639.198L641.648 219.758C642.488 218.722 642.936 217.868 642.936 216.594C642.936 214.788 641.662 213.528 639.8 213.528ZM647.006 213.528C645.312 213.528 644.262 214.452 643.912 216.216L645.172 216.51C645.396 215.348 645.97 214.788 647.006 214.788C648 214.788 648.742 215.446 648.742 216.566C648.742 217.504 648.504 218.106 647.762 219.044L643.954 223.916V224H650.268V222.74H646.404L648.854 219.758C649.694 218.722 650.142 217.868 650.142 216.594C650.142 214.788 648.868 213.528 647.006 213.528ZM658.877 219.646H654.593V220.92H658.877V219.646ZM671.562 213.71H662.924V214.984H666.522V224H667.95V214.984H671.562V213.71ZM677.138 216.972H675.766V221.718C675.332 222.32 674.814 222.838 673.932 222.838C673.008 222.838 672.448 222.124 672.448 221.088V216.972H671.076V221.158C671.076 222.95 671.972 224.14 673.582 224.14C674.716 224.14 675.416 223.678 675.836 223.146L675.892 224H677.138V216.972ZM681.973 216.832C679.999 216.832 678.613 218.386 678.613 220.5C678.613 222.614 679.985 224.14 682.155 224.14C683.429 224.14 684.339 223.65 685.011 222.824L684.101 222.068C683.751 222.558 683.079 222.95 682.155 222.95C680.839 222.95 680.083 222.236 679.999 220.976H685.151V220.43C685.151 218.456 684.073 216.832 681.973 216.832ZM681.973 218.008C683.107 218.008 683.751 218.75 683.793 219.856H679.999C680.069 218.736 680.839 218.008 681.973 218.008ZM686.917 222.222C686.791 222.222 686.637 222.25 686.525 222.292V226.128H686.581L687.757 223.776C687.841 223.608 687.925 223.426 687.925 223.16C687.925 222.642 687.477 222.222 686.917 222.222ZM695.794 213.528C694.184 213.528 692.854 214.676 692.854 216.3C692.854 217.308 693.358 218.12 694.114 218.554C693.106 219.002 692.42 219.954 692.42 221.088C692.42 222.894 693.946 224.182 695.794 224.182C697.642 224.182 699.182 222.894 699.182 221.088C699.182 219.954 698.468 219.016 697.46 218.54C698.216 218.106 698.734 217.294 698.734 216.3C698.734 214.676 697.404 213.528 695.794 213.528ZM695.794 214.76C696.704 214.76 697.432 215.446 697.432 216.356C697.432 217.322 696.704 218.022 695.794 218.022C694.884 218.022 694.156 217.322 694.156 216.356C694.156 215.446 694.884 214.76 695.794 214.76ZM695.794 219.254C696.886 219.254 697.768 220.052 697.768 221.116C697.768 222.166 696.886 222.95 695.794 222.95C694.702 222.95 693.834 222.166 693.834 221.116C693.834 220.052 694.702 219.254 695.794 219.254ZM706.386 213.724H705L699.89 224H701.304L706.386 213.724ZM710.147 213.528C708.523 213.528 707.557 214.438 707.095 215.74L708.313 216.258C708.607 215.334 709.195 214.788 710.133 214.788C711.085 214.788 711.785 215.418 711.785 216.44C711.785 217.504 710.987 218.036 710.133 218.036H708.985V219.254H710.105C711.281 219.254 712.107 220.024 712.107 221.06C712.107 222.194 711.351 222.922 710.259 222.922C709.083 222.922 708.509 222.292 708.187 221.298L706.927 221.634C707.431 223.244 708.439 224.182 710.259 224.182C712.219 224.182 713.493 222.922 713.493 221.06C713.493 219.87 712.821 219.03 711.785 218.638C712.583 218.274 713.171 217.602 713.171 216.454C713.171 214.746 711.939 213.528 710.147 213.528ZM718.087 213.528C715.777 213.528 714.475 215.6 714.475 218.848C714.475 222.11 715.777 224.182 718.087 224.182C720.383 224.182 721.685 222.11 721.685 218.848C721.685 215.6 720.383 213.528 718.087 213.528ZM718.087 214.774C719.557 214.774 720.271 216.384 720.271 218.848C720.271 221.326 719.557 222.936 718.087 222.936C716.603 222.936 715.889 221.326 715.889 218.848C715.889 216.384 716.603 214.774 718.087 214.774Z" fill="#707070"/>
<path d="M591.718 193.71H588.148V204H589.576V200.22H591.718C593.762 200.22 595.302 199.058 595.302 196.972C595.302 194.858 593.748 193.71 591.718 193.71ZM591.592 194.97C592.95 194.97 593.846 195.67 593.846 196.972C593.846 198.274 592.964 198.96 591.592 198.96H589.576V194.97H591.592ZM597.32 193.808C596.802 193.808 596.424 194.2 596.424 194.704C596.424 195.222 596.802 195.6 597.32 195.6C597.824 195.6 598.216 195.222 598.216 194.704C598.216 194.2 597.824 193.808 597.32 193.808ZM598.006 196.972H596.634V204H598.006V196.972ZM603.022 196.832C600.866 196.832 599.48 198.372 599.48 200.486C599.48 202.6 600.866 204.14 603.022 204.14C604.296 204.14 605.22 203.552 605.85 202.6L604.884 201.858C604.52 202.418 603.904 202.936 603.022 202.936C601.636 202.936 600.866 201.872 600.866 200.486C600.866 199.1 601.636 198.036 603.022 198.036C603.904 198.036 604.492 198.554 604.856 199.114L605.822 198.372C605.192 197.42 604.296 196.832 603.022 196.832ZM608.493 193.36H607.121V204H608.227L610.145 201.186L611.909 204H613.519L611.013 200.052L613.169 196.972H611.615L608.493 201.508V193.36ZM623.9 196.972H622.528V201.718C622.094 202.32 621.576 202.838 620.694 202.838C619.77 202.838 619.21 202.124 619.21 201.088V196.972H617.838V201.158C617.838 202.95 618.734 204.14 620.344 204.14C621.478 204.14 622.178 203.678 622.598 203.146L622.654 204H623.9V196.972ZM629.421 196.832C628.315 196.832 627.573 197.294 627.167 197.826L627.111 196.972H625.865V207.22H627.237V203.244C627.657 203.734 628.371 204.14 629.421 204.14C631.353 204.14 632.669 202.6 632.669 200.486C632.669 198.372 631.353 196.832 629.421 196.832ZM629.169 198.05C630.401 198.05 631.283 199.03 631.283 200.486C631.283 201.942 630.401 202.922 629.169 202.922C628.231 202.922 627.657 202.418 627.237 201.732V199.24C627.657 198.554 628.231 198.05 629.169 198.05ZM640.147 196.832C638.229 196.832 636.955 198.372 636.955 200.486C636.955 202.6 638.229 204.14 640.147 204.14C641.239 204.14 641.939 203.678 642.345 203.146L642.401 204H643.647V196.972H642.401L642.345 197.826C641.939 197.294 641.239 196.832 640.147 196.832ZM640.399 198.05C641.323 198.05 641.855 198.554 642.275 199.24V201.732C641.855 202.418 641.323 202.922 640.399 202.922C639.181 202.922 638.341 201.942 638.341 200.486C638.341 199.03 639.181 198.05 640.399 198.05ZM647.539 194.592H646.167V196.972H644.795V198.148H646.167V201.648C646.167 203.272 647.133 204.14 648.631 204.14C649.317 204.14 649.807 203.972 650.143 203.762L649.751 202.642C649.527 202.754 649.205 202.894 648.701 202.894C648.029 202.894 647.539 202.446 647.539 201.648V198.148H649.751V196.972H647.539V194.592ZM660.808 193.36H659.436V197.728C659.016 197.238 658.302 196.832 657.252 196.832C655.32 196.832 654.004 198.372 654.004 200.486C654.004 202.6 655.32 204.14 657.252 204.14C658.358 204.14 659.1 203.678 659.506 203.146L659.562 204H660.808V193.36ZM657.504 198.05C658.442 198.05 659.016 198.554 659.436 199.24V201.732C659.016 202.418 658.442 202.922 657.504 202.922C656.272 202.922 655.39 201.942 655.39 200.486C655.39 199.03 656.272 198.05 657.504 198.05ZM665.635 196.832C663.661 196.832 662.275 198.386 662.275 200.5C662.275 202.614 663.647 204.14 665.817 204.14C667.091 204.14 668.001 203.65 668.673 202.824L667.763 202.068C667.413 202.558 666.741 202.95 665.817 202.95C664.501 202.95 663.745 202.236 663.661 200.976H668.813V200.43C668.813 198.456 667.735 196.832 665.635 196.832ZM665.635 198.008C666.769 198.008 667.413 198.75 667.455 199.856H663.661C663.731 198.736 664.501 198.008 665.635 198.008ZM673.069 196.832C671.151 196.832 669.877 198.372 669.877 200.486C669.877 202.6 671.151 204.14 673.069 204.14C674.161 204.14 674.861 203.678 675.267 203.146L675.323 204H676.569V196.972H675.323L675.267 197.826C674.861 197.294 674.161 196.832 673.069 196.832ZM673.321 198.05C674.245 198.05 674.777 198.554 675.197 199.24V201.732C674.777 202.418 674.245 202.922 673.321 202.922C672.103 202.922 671.263 201.942 671.263 200.486C671.263 199.03 672.103 198.05 673.321 198.05ZM679.929 193.36H678.557V204H679.929V193.36ZM684.762 196.832C682.788 196.832 681.402 198.386 681.402 200.5C681.402 202.614 682.774 204.14 684.944 204.14C686.218 204.14 687.128 203.65 687.8 202.824L686.89 202.068C686.54 202.558 685.868 202.95 684.944 202.95C683.628 202.95 682.872 202.236 682.788 200.976H687.94V200.43C687.94 198.456 686.862 196.832 684.762 196.832ZM684.762 198.008C685.896 198.008 686.54 198.75 686.582 199.856H682.788C682.858 198.736 683.628 198.008 684.762 198.008ZM692.786 196.832C691.75 196.832 691.05 197.364 690.7 197.924L690.63 196.972H689.384V204H690.756V199.38C691.232 198.694 691.792 198.204 692.66 198.204H692.786V196.832ZM696.302 196.832C694.664 196.832 693.642 197.63 693.642 198.974C693.642 200.066 694.342 200.64 696.036 201.032C697.058 201.27 697.478 201.494 697.478 202.068C697.478 202.67 696.904 202.95 696.064 202.95C695.224 202.95 694.538 202.67 694.006 202.222L693.376 203.328C694.034 203.846 694.986 204.14 696.05 204.14C697.772 204.14 698.864 203.272 698.864 201.928C698.864 200.878 698.122 200.206 696.442 199.8C695.42 199.562 695.014 199.394 695.014 198.834C695.014 198.26 695.518 198.022 696.246 198.022C697.058 198.022 697.702 198.302 698.15 198.61L698.724 197.518C698.164 197.126 697.24 196.832 696.302 196.832ZM701.708 193.36H700.336V204H701.708V199.254C702.142 198.638 702.702 198.134 703.528 198.134C704.522 198.134 705.152 198.862 705.152 199.926V204H706.524V199.842C706.524 198.036 705.558 196.832 703.864 196.832C702.8 196.832 702.198 197.21 701.708 197.742V193.36ZM709.088 193.808C708.57 193.808 708.192 194.2 708.192 194.704C708.192 195.222 708.57 195.6 709.088 195.6C709.592 195.6 709.984 195.222 709.984 194.704C709.984 194.2 709.592 193.808 709.088 193.808ZM709.774 196.972H708.402V204H709.774V196.972ZM715.294 196.832C714.188 196.832 713.446 197.294 713.04 197.826L712.984 196.972H711.738V207.22H713.11V203.244C713.53 203.734 714.244 204.14 715.294 204.14C717.226 204.14 718.542 202.6 718.542 200.486C718.542 198.372 717.226 196.832 715.294 196.832ZM715.042 198.05C716.274 198.05 717.156 199.03 717.156 200.486C717.156 201.942 716.274 202.922 715.042 202.922C714.104 202.922 713.53 202.418 713.11 201.732V199.24C713.53 198.554 714.104 198.05 715.042 198.05Z" fill="#343434"/>
<circle cx="555" cy="209" r="12" fill="white"/>
<path fill-rule="evenodd" clip-rule="evenodd" d="M543 209C543 215.627 548.373 221 555 221C561.627 221 567 215.627 567 209C567 202.373 561.627 197 555 197C548.373 197 543 202.373 543 209ZM565.5 209C565.5 214.799 560.799 219.5 555 219.5C549.201 219.5 544.5 214.799 544.5 209C544.5 203.201 549.201 198.5 555 198.5C560.799 198.5 565.5 203.201 565.5 209Z" fill="#C2C2C2"/>
<rect x="533.5" y="179.5" width="394" height="59" rx="9.5" stroke="#E5E5E5"/>
<rect x="0.5" y="109.5" width="501" height="399" rx="4.5" fill="white"/>
<rect x="1" y="110" width="501" height="59" fill="#F8F8F8"/>
<rect x="1" y="343" width="501" height="59" fill="#F8F8F8"/>
<path d="M28.544 133.24H21.168V145H23.616V140.264H27.696V138.168H23.616V135.48H28.544V133.24ZM31.035 132.936C30.235 132.936 29.659 133.528 29.659 134.328C29.659 135.128 30.235 135.72 31.035 135.72C31.835 135.72 32.427 135.128 32.427 134.328C32.427 133.528 31.835 132.936 31.035 132.936ZM32.219 136.888H29.851V145H32.219V136.888ZM38.6915 136.728C37.5875 136.728 36.8035 137.192 36.4035 137.784L36.2915 136.888H34.1635V145H36.5315V139.896C36.8355 139.416 37.3315 138.952 38.0515 138.952C38.8835 138.952 39.3795 139.56 39.3795 140.456V145H41.7475V140.328C41.7475 138.136 40.6755 136.728 38.6915 136.728ZM46.673 136.728C44.545 136.728 43.105 138.52 43.105 140.952C43.105 143.384 44.545 145.16 46.673 145.16C47.825 145.16 48.577 144.68 48.993 144.104L49.105 145H51.233V136.888H49.105L48.993 137.8C48.577 137.208 47.825 136.728 46.673 136.728ZM47.249 138.792C48.049 138.792 48.513 139.224 48.865 139.8V142.088C48.513 142.664 48.049 143.096 47.249 143.096C46.209 143.096 45.505 142.28 45.505 140.952C45.505 139.624 46.209 138.792 47.249 138.792ZM57.7071 136.728C56.6031 136.728 55.8191 137.192 55.4191 137.784L55.3071 136.888H53.1791V145H55.5471V139.896C55.8511 139.416 56.3471 138.952 57.0671 138.952C57.8991 138.952 58.3951 139.56 58.3951 140.456V145H60.7631V140.328C60.7631 138.136 59.6911 136.728 57.7071 136.728ZM66.3286 136.728C63.8646 136.728 62.1206 138.52 62.1206 140.952C62.1206 143.384 63.8646 145.16 66.3286 145.16C67.8486 145.16 68.9846 144.424 69.6726 143.24L68.0726 142.072C67.7046 142.68 67.1766 143.112 66.3766 143.112C65.1766 143.112 64.5206 142.152 64.5206 140.952C64.5206 139.736 65.1606 138.776 66.3446 138.776C67.1606 138.776 67.6726 139.208 68.0086 139.816L69.6566 138.6C68.9366 137.432 67.8486 136.728 66.3286 136.728ZM74.4666 136.728C72.0506 136.728 70.3706 138.536 70.3706 140.968C70.3706 143.4 72.0666 145.16 74.6266 145.16C76.1306 145.16 77.2826 144.616 78.0826 143.592L76.5146 142.392C76.1626 142.856 75.5226 143.208 74.6906 143.208C73.5386 143.208 72.8186 142.616 72.7706 141.592H78.2426V140.84C78.2426 138.616 77.0106 136.728 74.4666 136.728ZM74.3866 138.504C75.3466 138.504 75.8746 139.192 75.9066 140.104H72.7706C72.8026 139.176 73.4426 138.504 74.3866 138.504ZM87.287 133.24H83.543V145H87.287C91.335 145 93.719 142.824 93.719 139.112C93.719 135.4 91.303 133.24 87.287 133.24ZM87.207 135.496C89.847 135.496 91.239 136.824 91.239 139.128C91.239 141.416 89.863 142.76 87.207 142.76H85.991V135.496H87.207ZM99.076 136.728C96.66 136.728 94.98 138.536 94.98 140.968C94.98 143.4 96.676 145.16 99.236 145.16C100.74 145.16 101.892 144.616 102.692 143.592L101.124 142.392C100.772 142.856 100.132 143.208 99.3 143.208C98.148 143.208 97.428 142.616 97.38 141.592H102.852V140.84C102.852 138.616 101.62 136.728 99.076 136.728ZM98.996 138.504C99.956 138.504 100.484 139.192 100.516 140.104H97.38C97.412 139.176 98.052 138.504 98.996 138.504ZM107.343 134.2H104.975V136.888H103.519V138.888H104.975V141.976C104.975 144.024 106.239 145.16 108.239 145.16C109.055 145.16 109.663 144.936 110.095 144.664L109.487 142.792C109.263 142.904 108.927 143.048 108.431 143.048C107.791 143.048 107.343 142.632 107.343 141.944V138.888H109.663V136.888H107.343V134.2ZM114.189 136.728C112.061 136.728 110.621 138.52 110.621 140.952C110.621 143.384 112.061 145.16 114.189 145.16C115.341 145.16 116.093 144.68 116.509 144.104L116.621 145H118.749V136.888H116.621L116.509 137.8C116.093 137.208 115.341 136.728 114.189 136.728ZM114.765 138.792C115.565 138.792 116.029 139.224 116.381 139.8V142.088C116.029 142.664 115.565 143.096 114.765 143.096C113.725 143.096 113.021 142.28 113.021 140.952C113.021 139.624 113.725 138.792 114.765 138.792ZM121.879 132.936C121.079 132.936 120.503 133.528 120.503 134.328C120.503 135.128 121.079 135.72 121.879 135.72C122.679 135.72 123.271 135.128 123.271 134.328C123.271 133.528 122.679 132.936 121.879 132.936ZM123.063 136.888H120.695V145H123.063V136.888ZM127.407 132.84H125.039V145H127.407V132.84ZM132.455 136.728C130.311 136.728 129.047 137.768 129.047 139.4C129.047 140.664 129.863 141.32 131.687 141.768C132.743 142.024 133.031 142.232 133.031 142.664C133.031 143.144 132.599 143.352 131.879 143.352C130.967 143.352 130.199 143 129.639 142.536L128.743 144.232C129.463 144.808 130.631 145.16 131.863 145.16C134.055 145.16 135.399 144.072 135.399 142.44C135.399 141.224 134.583 140.456 132.839 140.04C131.703 139.768 131.399 139.592 131.399 139.192C131.399 138.76 131.783 138.552 132.439 138.552C133.271 138.552 133.975 138.888 134.487 139.24L135.351 137.576C134.663 137.064 133.575 136.728 132.455 136.728Z" fill="#343434"/>
<path d="M352.797 133.528C349.815 133.528 347.659 135.796 347.659 138.862C347.659 141.914 349.815 144.182 352.797 144.182C354.323 144.182 355.569 143.692 356.535 142.642L355.639 141.578C354.981 142.334 354.029 142.866 352.797 142.866C350.613 142.866 349.101 141.172 349.101 138.862C349.101 136.538 350.613 134.844 352.797 134.844C353.987 134.844 354.911 135.348 355.569 136.062L356.479 135.026C355.527 134.06 354.379 133.528 352.797 133.528ZM363.833 136.972H362.461V141.718C362.027 142.32 361.509 142.838 360.627 142.838C359.703 142.838 359.143 142.124 359.143 141.088V136.972H357.771V141.158C357.771 142.95 358.667 144.14 360.277 144.14C361.411 144.14 362.111 143.678 362.531 143.146L362.587 144H363.833V136.972ZM368.136 136.832C366.498 136.832 365.476 137.63 365.476 138.974C365.476 140.066 366.176 140.64 367.87 141.032C368.892 141.27 369.312 141.494 369.312 142.068C369.312 142.67 368.738 142.95 367.898 142.95C367.058 142.95 366.372 142.67 365.84 142.222L365.21 143.328C365.868 143.846 366.82 144.14 367.884 144.14C369.606 144.14 370.698 143.272 370.698 141.928C370.698 140.878 369.956 140.206 368.276 139.8C367.254 139.562 366.848 139.394 366.848 138.834C366.848 138.26 367.352 138.022 368.08 138.022C368.892 138.022 369.536 138.302 369.984 138.61L370.558 137.518C369.998 137.126 369.074 136.832 368.136 136.832ZM374.101 134.592H372.729V136.972H371.357V138.148H372.729V141.648C372.729 143.272 373.695 144.14 375.193 144.14C375.879 144.14 376.369 143.972 376.705 143.762L376.313 142.642C376.089 142.754 375.767 142.894 375.263 142.894C374.591 142.894 374.101 142.446 374.101 141.648V138.148H376.313V136.972H374.101V134.592ZM380.856 136.832C378.77 136.832 377.258 138.386 377.258 140.5C377.258 142.614 378.77 144.14 380.856 144.14C382.942 144.14 384.468 142.614 384.468 140.5C384.468 138.386 382.942 136.832 380.856 136.832ZM380.856 138.05C382.144 138.05 383.082 139.086 383.082 140.5C383.082 141.9 382.144 142.922 380.856 142.922C379.568 142.922 378.644 141.9 378.644 140.5C378.644 139.086 379.568 138.05 380.856 138.05ZM394.127 136.832C392.965 136.832 392.139 137.364 391.607 138.12C391.201 137.308 390.459 136.832 389.437 136.832C388.373 136.832 387.645 137.308 387.239 137.826L387.183 136.972H385.937V144H387.309V139.24C387.757 138.638 388.289 138.134 389.087 138.134C390.025 138.134 390.613 138.862 390.613 139.926V144H391.985V139.73C391.985 139.59 391.971 139.436 391.957 139.282C392.405 138.638 392.965 138.134 393.763 138.134C394.701 138.134 395.289 138.862 395.289 139.926V144H396.675V139.842C396.675 138.036 395.737 136.832 394.127 136.832ZM399.242 133.808C398.724 133.808 398.346 134.2 398.346 134.704C398.346 135.222 398.724 135.6 399.242 135.6C399.746 135.6 400.138 135.222 400.138 134.704C400.138 134.2 399.746 133.808 399.242 133.808ZM399.928 136.972H398.556V144H399.928V136.972ZM406.918 136.972H401.444V138.148H404.762L401.234 143.944V144H406.904V142.824H403.376L406.918 137.028V136.972ZM410.887 136.832C408.913 136.832 407.527 138.386 407.527 140.5C407.527 142.614 408.899 144.14 411.069 144.14C412.343 144.14 413.253 143.65 413.925 142.824L413.015 142.068C412.665 142.558 411.993 142.95 411.069 142.95C409.753 142.95 408.997 142.236 408.913 140.976H414.065V140.43C414.065 138.456 412.987 136.832 410.887 136.832ZM410.887 138.008C412.021 138.008 412.665 138.75 412.707 139.856H408.913C408.983 138.736 409.753 138.008 410.887 138.008ZM422.556 133.71H418.986V144H420.414V140.22H422.556C424.6 140.22 426.14 139.058 426.14 136.972C426.14 134.858 424.586 133.71 422.556 133.71ZM422.43 134.97C423.788 134.97 424.684 135.67 424.684 136.972C424.684 138.274 423.802 138.96 422.43 138.96H420.414V134.97H422.43ZM430.01 136.832C428.092 136.832 426.818 138.372 426.818 140.486C426.818 142.6 428.092 144.14 430.01 144.14C431.102 144.14 431.802 143.678 432.208 143.146L432.264 144H433.51V136.972H432.264L432.208 137.826C431.802 137.294 431.102 136.832 430.01 136.832ZM430.262 138.05C431.186 138.05 431.718 138.554 432.138 139.24V141.732C431.718 142.418 431.186 142.922 430.262 142.922C429.044 142.922 428.204 141.942 428.204 140.486C428.204 139.03 429.044 138.05 430.262 138.05ZM441.826 136.972H440.398L438.158 141.536L435.96 136.972H434.532L437.43 142.852L435.12 147.22H436.688L441.826 136.972ZM451.016 136.832C449.854 136.832 449.028 137.364 448.496 138.12C448.09 137.308 447.348 136.832 446.326 136.832C445.262 136.832 444.534 137.308 444.128 137.826L444.072 136.972H442.826V144H444.198V139.24C444.646 138.638 445.178 138.134 445.976 138.134C446.914 138.134 447.502 138.862 447.502 139.926V144H448.874V139.73C448.874 139.59 448.86 139.436 448.846 139.282C449.294 138.638 449.854 138.134 450.652 138.134C451.59 138.134 452.178 138.862 452.178 139.926V144H453.564V139.842C453.564 138.036 452.626 136.832 451.016 136.832ZM458.315 136.832C456.341 136.832 454.955 138.386 454.955 140.5C454.955 142.614 456.327 144.14 458.497 144.14C459.771 144.14 460.681 143.65 461.353 142.824L460.443 142.068C460.093 142.558 459.421 142.95 458.497 142.95C457.181 142.95 456.425 142.236 456.341 140.976H461.493V140.43C461.493 138.456 460.415 136.832 458.315 136.832ZM458.315 138.008C459.449 138.008 460.093 138.75 460.135 139.856H456.341C456.411 138.736 457.181 138.008 458.315 138.008ZM466.465 136.832C465.387 136.832 464.645 137.308 464.239 137.826L464.183 136.972H462.937V144H464.309V139.254C464.743 138.638 465.303 138.134 466.129 138.134C467.123 138.134 467.753 138.862 467.753 139.926V144H469.125V139.842C469.125 138.036 468.159 136.832 466.465 136.832ZM472.935 134.592H471.563V136.972H470.191V138.148H471.563V141.648C471.563 143.272 472.529 144.14 474.027 144.14C474.713 144.14 475.203 143.972 475.539 143.762L475.147 142.642C474.923 142.754 474.601 142.894 474.097 142.894C473.425 142.894 472.935 142.446 472.935 141.648V138.148H475.147V136.972H472.935V134.592ZM478.947 136.832C477.309 136.832 476.287 137.63 476.287 138.974C476.287 140.066 476.987 140.64 478.681 141.032C479.703 141.27 480.123 141.494 480.123 142.068C480.123 142.67 479.549 142.95 478.709 142.95C477.869 142.95 477.183 142.67 476.651 142.222L476.021 143.328C476.679 143.846 477.631 144.14 478.695 144.14C480.417 144.14 481.509 143.272 481.509 141.928C481.509 140.878 480.767 140.206 479.087 139.8C478.065 139.562 477.659 139.394 477.659 138.834C477.659 138.26 478.163 138.022 478.891 138.022C479.703 138.022 480.347 138.302 480.795 138.61L481.369 137.518C480.809 137.126 479.885 136.832 478.947 136.832Z" fill="#343434"/>
<path d="M347.141 145.4H481.999V146.1H347.141V145.4Z" fill="#343434"/>
<path d="M25.872 366.24H21.168V378H23.616V374.016H25.872C28.128 374.016 30.016 372.624 30.016 370.128C30.016 367.632 28.128 366.24 25.872 366.24ZM25.632 368.352C26.768 368.352 27.52 368.992 27.52 370.128C27.52 371.312 26.768 371.904 25.632 371.904H23.616V368.352H25.632ZM35.9743 369.728C34.8383 369.728 34.0383 370.288 33.6383 370.96L33.4943 369.888H31.3823V378H33.7503V373.152C34.2143 372.544 34.8223 372.08 35.7663 372.08H35.9743V369.728ZM38.3631 365.936C37.5631 365.936 36.9871 366.528 36.9871 367.328C36.9871 368.128 37.5631 368.72 38.3631 368.72C39.1631 368.72 39.7551 368.128 39.7551 367.328C39.7551 366.528 39.1631 365.936 38.3631 365.936ZM39.5471 369.888H37.1791V378H39.5471V369.888ZM45.2036 369.728C42.7396 369.728 40.9956 371.52 40.9956 373.952C40.9956 376.384 42.7396 378.16 45.2036 378.16C46.7236 378.16 47.8596 377.424 48.5476 376.24L46.9476 375.072C46.5796 375.68 46.0516 376.112 45.2516 376.112C44.0516 376.112 43.3956 375.152 43.3956 373.952C43.3956 372.736 44.0356 371.776 45.2196 371.776C46.0356 371.776 46.5476 372.208 46.8836 372.816L48.5316 371.6C47.8116 370.432 46.7236 369.728 45.2036 369.728ZM53.3416 369.728C50.9256 369.728 49.2456 371.536 49.2456 373.968C49.2456 376.4 50.9416 378.16 53.5016 378.16C55.0056 378.16 56.1576 377.616 56.9576 376.592L55.3896 375.392C55.0376 375.856 54.3976 376.208 53.5656 376.208C52.4136 376.208 51.6936 375.616 51.6456 374.592H57.1176V373.84C57.1176 371.616 55.8856 369.728 53.3416 369.728ZM53.2616 371.504C54.2216 371.504 54.7496 372.192 54.7816 373.104H51.6456C51.6776 372.176 52.3176 371.504 53.2616 371.504ZM66.978 366.24H62.418V378H67.746C69.922 378 71.65 376.768 71.65 374.576C71.65 372.944 70.754 372.112 69.57 371.696C70.13 371.312 70.706 370.576 70.706 369.424C70.706 367.44 69.298 366.24 66.978 366.24ZM66.658 368.352C67.634 368.352 68.226 368.864 68.226 369.696C68.226 370.496 67.634 371.04 66.706 371.04H64.866V368.352H66.658ZM67.378 372.976C68.514 372.976 69.17 373.504 69.17 374.432C69.17 375.36 68.482 375.888 67.458 375.888H64.866V372.976H67.378ZM77.6305 369.728C76.4945 369.728 75.6945 370.288 75.2945 370.96L75.1505 369.888H73.0385V378H75.4065V373.152C75.8705 372.544 76.4785 372.08 77.4225 372.08H77.6305V369.728ZM82.4354 369.728C80.0194 369.728 78.3394 371.536 78.3394 373.968C78.3394 376.4 80.0354 378.16 82.5954 378.16C84.0994 378.16 85.2514 377.616 86.0514 376.592L84.4834 375.392C84.1314 375.856 83.4914 376.208 82.6594 376.208C81.5074 376.208 80.7874 375.616 80.7394 374.592H86.2114V373.84C86.2114 371.616 84.9794 369.728 82.4354 369.728ZM82.3554 371.504C83.3154 371.504 83.8434 372.192 83.8754 373.104H80.7394C80.7714 372.176 81.4114 371.504 82.3554 371.504ZM90.8761 369.728C88.7481 369.728 87.3081 371.52 87.3081 373.952C87.3081 376.384 88.7481 378.16 90.8761 378.16C92.0281 378.16 92.7801 377.68 93.1961 377.104L93.3081 378H95.4361V369.888H93.3081L93.1961 370.8C92.7801 370.208 92.0281 369.728 90.8761 369.728ZM91.4521 371.792C92.2521 371.792 92.7161 372.224 93.0681 372.8V375.088C92.7161 375.664 92.2521 376.096 91.4521 376.096C90.4121 376.096 89.7081 375.28 89.7081 373.952C89.7081 372.624 90.4121 371.792 91.4521 371.792ZM99.7823 365.84H97.4143V378H99.2703L101.27 375.264L102.838 378H105.542L102.838 373.296L105.302 369.888H102.614L99.7823 374.192V365.84ZM114.017 365.84H111.649V370.624C111.265 370.176 110.561 369.728 109.409 369.728C107.249 369.728 105.777 371.52 105.777 373.952C105.777 376.384 107.249 378.16 109.409 378.16C110.561 378.16 111.361 377.68 111.777 377.104L111.889 378H114.017V365.84ZM109.985 371.792C110.785 371.792 111.297 372.224 111.649 372.816V375.088C111.297 375.664 110.785 376.096 109.985 376.096C108.913 376.096 108.177 375.28 108.177 373.952C108.177 372.624 108.913 371.792 109.985 371.792ZM119.752 369.728C117.288 369.728 115.48 371.536 115.48 373.968C115.48 376.4 117.288 378.16 119.752 378.16C122.216 378.16 124.04 376.4 124.04 373.968C124.04 371.536 122.216 369.728 119.752 369.728ZM119.752 371.792C120.872 371.792 121.656 372.688 121.656 373.968C121.656 375.216 120.872 376.096 119.752 376.096C118.648 376.096 117.88 375.216 117.88 373.968C117.88 372.688 118.648 371.792 119.752 371.792ZM136.16 369.888H133.584L132.016 373.808L130.112 369.888H130.048L128.144 373.808L126.592 369.888H124L127.888 378.16H127.952L130.08 374.176L132.208 378.16H132.272L136.16 369.888ZM141.66 369.728C140.556 369.728 139.772 370.192 139.372 370.784L139.26 369.888H137.132V378H139.5V372.896C139.804 372.416 140.3 371.952 141.02 371.952C141.852 371.952 142.348 372.56 142.348 373.456V378H144.716V373.328C144.716 371.136 143.644 369.728 141.66 369.728Z" fill="#343434"/>
<path d="M32.64 194.032H32.576L26.976 203.184L21.376 194.032H21.312V206H22.944V199.504L26.928 206.096H27.04L31.008 199.504V206H32.64V194.032ZM38.6408 197.808C36.2568 197.808 34.5288 199.584 34.5288 202C34.5288 204.416 36.2568 206.16 38.6408 206.16C41.0248 206.16 42.7688 204.416 42.7688 202C42.7688 199.584 41.0248 197.808 38.6408 197.808ZM38.6408 199.2C40.1128 199.2 41.1848 200.384 41.1848 202C41.1848 203.6 40.1128 204.768 38.6408 204.768C37.1688 204.768 36.1128 203.6 36.1128 202C36.1128 200.384 37.1688 199.2 38.6408 199.2ZM48.4801 197.808C47.2481 197.808 46.4001 198.352 45.9361 198.944L45.8721 197.968H44.4481V206H46.0161V200.576C46.5121 199.872 47.1521 199.296 48.0961 199.296C49.2321 199.296 49.9521 200.128 49.9521 201.344V206H51.5201V201.248C51.5201 199.184 50.4161 197.808 48.4801 197.808ZM55.8749 195.248H54.3069V197.968H52.7389V199.312H54.3069V203.312C54.3069 205.168 55.4109 206.16 57.1229 206.16C57.9069 206.16 58.4669 205.968 58.8509 205.728L58.4029 204.448C58.1469 204.576 57.7789 204.736 57.2029 204.736C56.4349 204.736 55.8749 204.224 55.8749 203.312V199.312H58.4029V197.968H55.8749V195.248ZM61.6419 193.84H60.0739V206H61.6419V200.576C62.1379 199.872 62.7779 199.296 63.7219 199.296C64.8579 199.296 65.5779 200.128 65.5779 201.344V206H67.1459V201.248C67.1459 199.184 66.0419 197.808 64.1059 197.808C62.8899 197.808 62.2019 198.24 61.6419 198.848V193.84ZM70.8919 193.84H69.3239V206H70.8919V193.84ZM80.4309 197.968H78.7989L76.2389 203.184L73.7269 197.968H72.0949L75.4069 204.688L72.7669 209.68H74.5589L80.4309 197.968ZM89.6264 194.24H85.5464V206H87.1784V201.68H89.6264C91.9624 201.68 93.7224 200.352 93.7224 197.968C93.7224 195.552 91.9464 194.24 89.6264 194.24ZM89.4824 195.68C91.0344 195.68 92.0584 196.48 92.0584 197.968C92.0584 199.456 91.0504 200.24 89.4824 200.24H87.1784V195.68H89.4824ZM98.1455 197.808C95.9535 197.808 94.4975 199.568 94.4975 201.984C94.4975 204.4 95.9535 206.16 98.1455 206.16C99.3935 206.16 100.194 205.632 100.658 205.024L100.722 206H102.146V197.968H100.722L100.658 198.944C100.194 198.336 99.3935 197.808 98.1455 197.808ZM98.4335 199.2C99.4895 199.2 100.098 199.776 100.578 200.56V203.408C100.098 204.192 99.4895 204.768 98.4335 204.768C97.0415 204.768 96.0815 203.648 96.0815 201.984C96.0815 200.32 97.0415 199.2 98.4335 199.2ZM111.65 197.968H110.018L107.458 203.184L104.946 197.968H103.314L106.626 204.688L103.986 209.68H105.778L111.65 197.968ZM122.152 197.808C120.824 197.808 119.88 198.416 119.272 199.28C118.808 198.352 117.96 197.808 116.792 197.808C115.576 197.808 114.744 198.352 114.28 198.944L114.216 197.968H112.792V206H114.36V200.56C114.872 199.872 115.48 199.296 116.392 199.296C117.464 199.296 118.136 200.128 118.136 201.344V206H119.704V201.12C119.704 200.96 119.688 200.784 119.672 200.608C120.184 199.872 120.824 199.296 121.736 199.296C122.808 199.296 123.48 200.128 123.48 201.344V206H125.064V201.248C125.064 199.184 123.992 197.808 122.152 197.808ZM130.494 197.808C128.238 197.808 126.654 199.584 126.654 202C126.654 204.416 128.222 206.16 130.702 206.16C132.158 206.16 133.198 205.6 133.966 204.656L132.926 203.792C132.526 204.352 131.758 204.8 130.702 204.8C129.198 204.8 128.334 203.984 128.238 202.544H134.126V201.92C134.126 199.664 132.894 197.808 130.494 197.808ZM130.494 199.152C131.79 199.152 132.526 200 132.574 201.264H128.238C128.318 199.984 129.198 199.152 130.494 199.152ZM139.808 197.808C138.576 197.808 137.728 198.352 137.264 198.944L137.2 197.968H135.776V206H137.344V200.576C137.84 199.872 138.48 199.296 139.424 199.296C140.56 199.296 141.28 200.128 141.28 201.344V206H142.848V201.248C142.848 199.184 141.744 197.808 139.808 197.808ZM147.203 195.248H145.635V197.968H144.067V199.312H145.635V203.312C145.635 205.168 146.739 206.16 148.451 206.16C149.235 206.16 149.795 205.968 150.179 205.728L149.731 204.448C149.475 204.576 149.107 204.736 148.531 204.736C147.763 204.736 147.203 204.224 147.203 203.312V199.312H149.731V197.968H147.203V195.248Z" fill="#343434"/>
<path d="M24.864 268.24H21.312V280H24.864C28.864 280 31.184 277.824 31.184 274.112C31.184 270.4 28.832 268.24 24.864 268.24ZM24.816 269.76C27.84 269.76 29.536 271.36 29.536 274.112C29.536 276.88 27.872 278.496 24.816 278.496H22.944V269.76H24.816ZM36.7189 271.808C34.3349 271.808 32.6069 273.584 32.6069 276C32.6069 278.416 34.3349 280.16 36.7189 280.16C39.1029 280.16 40.8469 278.416 40.8469 276C40.8469 273.584 39.1029 271.808 36.7189 271.808ZM36.7189 273.2C38.1909 273.2 39.2629 274.384 39.2629 276C39.2629 277.6 38.1909 278.768 36.7189 278.768C35.2469 278.768 34.1909 277.6 34.1909 276C34.1909 274.384 35.2469 273.2 36.7189 273.2ZM52.9676 271.968H51.3676L49.2876 276.848L47.0636 271.968H46.9996L44.7596 276.848L42.6956 271.968H41.0796L44.6476 280.16H44.7116L47.0316 275.392L49.3356 280.16H49.3996L52.9676 271.968ZM58.1833 271.808C56.9513 271.808 56.1033 272.352 55.6393 272.944L55.5753 271.968H54.1513V280H55.7193V274.576C56.2153 273.872 56.8553 273.296 57.7993 273.296C58.9353 273.296 59.6553 274.128 59.6553 275.344V280H61.2233V275.248C61.2233 273.184 60.1193 271.808 58.1833 271.808ZM71.4233 268.24H67.3433V280H68.9753V275.68H71.4233C73.7593 275.68 75.5193 274.352 75.5193 271.968C75.5193 269.552 73.7433 268.24 71.4233 268.24ZM71.2793 269.68C72.8313 269.68 73.8553 270.48 73.8553 271.968C73.8553 273.456 72.8473 274.24 71.2793 274.24H68.9753V269.68H71.2793ZM79.9424 271.808C77.7504 271.808 76.2944 273.568 76.2944 275.984C76.2944 278.4 77.7504 280.16 79.9424 280.16C81.1904 280.16 81.9904 279.632 82.4544 279.024L82.5184 280H83.9424V271.968H82.5184L82.4544 272.944C81.9904 272.336 81.1904 271.808 79.9424 271.808ZM80.2304 273.2C81.2864 273.2 81.8944 273.776 82.3744 274.56V277.408C81.8944 278.192 81.2864 278.768 80.2304 278.768C78.8384 278.768 77.8784 277.648 77.8784 275.984C77.8784 274.32 78.8384 273.2 80.2304 273.2ZM93.4465 271.968H91.8145L89.2545 277.184L86.7425 271.968H85.1105L88.4225 278.688L85.7825 283.68H87.5745L93.4465 271.968ZM103.949 271.808C102.621 271.808 101.677 272.416 101.069 273.28C100.605 272.352 99.7568 271.808 98.5888 271.808C97.3728 271.808 96.5408 272.352 96.0768 272.944L96.0128 271.968H94.5888V280H96.1568V274.56C96.6688 273.872 97.2768 273.296 98.1888 273.296C99.2608 273.296 99.9328 274.128 99.9328 275.344V280H101.501V275.12C101.501 274.96 101.485 274.784 101.469 274.608C101.981 273.872 102.621 273.296 103.533 273.296C104.605 273.296 105.277 274.128 105.277 275.344V280H106.861V275.248C106.861 273.184 105.789 271.808 103.949 271.808ZM112.291 271.808C110.035 271.808 108.451 273.584 108.451 276C108.451 278.416 110.019 280.16 112.499 280.16C113.955 280.16 114.995 279.6 115.763 278.656L114.723 277.792C114.323 278.352 113.555 278.8 112.499 278.8C110.995 278.8 110.131 277.984 110.035 276.544H115.923V275.92C115.923 273.664 114.691 271.808 112.291 271.808ZM112.291 273.152C113.587 273.152 114.323 274 114.371 275.264H110.035C110.115 273.984 110.995 273.152 112.291 273.152ZM121.605 271.808C120.373 271.808 119.525 272.352 119.061 272.944L118.997 271.968H117.573V280H119.141V274.576C119.637 273.872 120.277 273.296 121.221 273.296C122.357 273.296 123.077 274.128 123.077 275.344V280H124.645V275.248C124.645 273.184 123.541 271.808 121.605 271.808ZM129 269.248H127.432V271.968H125.864V273.312H127.432V277.312C127.432 279.168 128.536 280.16 130.248 280.16C131.032 280.16 131.592 279.968 131.976 279.728L131.528 278.448C131.272 278.576 130.904 278.736 130.328 278.736C129.56 278.736 129 278.224 129 277.312V273.312H131.528V271.968H129V269.248Z" fill="#343434"/>
<path d="M25.616 305.032H25.552L20.144 317H21.888L22.944 314.6H28.224L29.28 317H31.024L25.616 305.032ZM25.584 308.632L27.616 313.176H23.552L25.584 308.632ZM36.4389 305.24H32.3589V317H33.9909V312.68H36.4389C38.7749 312.68 40.5349 311.352 40.5349 308.968C40.5349 306.552 38.7589 305.24 36.4389 305.24ZM36.2949 306.68C37.8469 306.68 38.8709 307.48 38.8709 308.968C38.8709 310.456 37.8629 311.24 36.2949 311.24H33.9909V306.68H36.2949ZM50.8255 317L47.8815 312.248C49.3215 311.752 50.2655 310.6 50.2655 308.888C50.2655 306.536 48.4575 305.24 46.1215 305.24H42.2175V317H43.8495V312.536H46.1215H46.1535L48.9055 317H50.8255ZM43.8495 306.68H45.9775C47.5615 306.68 48.6175 307.448 48.6175 308.888C48.6175 310.344 47.5775 311.096 45.9775 311.096H43.8495V306.68Z" fill="#343434"/>
<path d="M28.352 231.24H21.312V243H22.944V237.944H27.52V236.472H22.944V232.744H28.352V231.24ZM30.529 231.352C29.937 231.352 29.505 231.8 29.505 232.376C29.505 232.968 29.937 233.4 30.529 233.4C31.105 233.4 31.553 232.968 31.553 232.376C31.553 231.8 31.105 231.352 30.529 231.352ZM31.313 234.968H29.745V243H31.313V234.968ZM37.5895 234.808C36.3575 234.808 35.5095 235.352 35.0455 235.944L34.9815 234.968H33.5575V243H35.1255V237.576C35.6215 236.872 36.2615 236.296 37.2055 236.296C38.3415 236.296 39.0615 237.128 39.0615 238.344V243H40.6295V238.248C40.6295 236.184 39.5255 234.808 37.5895 234.808ZM45.8643 234.808C43.6723 234.808 42.2163 236.568 42.2163 238.984C42.2163 241.4 43.6723 243.16 45.8643 243.16C47.1123 243.16 47.9123 242.632 48.3763 242.024L48.4403 243H49.8643V234.968H48.4403L48.3763 235.944C47.9123 235.336 47.1123 234.808 45.8643 234.808ZM46.1523 236.2C47.2083 236.2 47.8163 236.776 48.2963 237.56V240.408C47.8163 241.192 47.2083 241.768 46.1523 241.768C44.7603 241.768 43.8003 240.648 43.8003 238.984C43.8003 237.32 44.7603 236.2 46.1523 236.2ZM56.1364 234.808C54.9044 234.808 54.0564 235.352 53.5924 235.944L53.5284 234.968H52.1044V243H53.6724V237.576C54.1684 236.872 54.8084 236.296 55.7524 236.296C56.8884 236.296 57.6084 237.128 57.6084 238.344V243H59.1764V238.248C59.1764 236.184 58.0724 234.808 56.1364 234.808ZM64.8111 234.808C62.3471 234.808 60.7631 236.568 60.7631 238.984C60.7631 241.4 62.3471 243.16 64.8111 243.16C66.2671 243.16 67.3231 242.488 68.0431 241.4L66.9391 240.552C66.5231 241.192 65.8191 241.784 64.8111 241.784C63.2271 241.784 62.3471 240.568 62.3471 238.984C62.3471 237.4 63.2271 236.184 64.8111 236.184C65.8191 236.184 66.4911 236.776 66.9071 237.416L68.0111 236.568C67.2911 235.48 66.2671 234.808 64.8111 234.808ZM72.7438 234.808C70.4878 234.808 68.9038 236.584 68.9038 239C68.9038 241.416 70.4718 243.16 72.9518 243.16C74.4078 243.16 75.4478 242.6 76.2158 241.656L75.1758 240.792C74.7758 241.352 74.0078 241.8 72.9518 241.8C71.4478 241.8 70.5838 240.984 70.4878 239.544H76.3758V238.92C76.3758 236.664 75.1438 234.808 72.7438 234.808ZM72.7438 236.152C74.0398 236.152 74.7758 237 74.8238 238.264H70.4878C70.5678 236.984 71.4478 236.152 72.7438 236.152ZM90.7675 231.24H80.8955V232.696H85.0075V243H86.6395V232.696H90.7675V231.24ZM93.3844 234.808C91.1284 234.808 89.5444 236.584 89.5444 239C89.5444 241.416 91.1124 243.16 93.5924 243.16C95.0484 243.16 96.0884 242.6 96.8564 241.656L95.8164 240.792C95.4164 241.352 94.6484 241.8 93.5924 241.8C92.0884 241.8 91.2244 240.984 91.1284 239.544H97.0164V238.92C97.0164 236.664 95.7844 234.808 93.3844 234.808ZM93.3844 236.152C94.6804 236.152 95.4164 237 95.4644 238.264H91.1284C91.2084 236.984 92.0884 236.152 93.3844 236.152ZM102.555 234.808C101.371 234.808 100.571 235.416 100.171 236.056L100.091 234.968H98.6669V243H100.235V237.72C100.779 236.936 101.419 236.376 102.411 236.376H102.555V234.808ZM113.261 234.808C111.933 234.808 110.989 235.416 110.381 236.28C109.917 235.352 109.069 234.808 107.901 234.808C106.685 234.808 105.853 235.352 105.389 235.944L105.325 234.968H103.901V243H105.469V237.56C105.981 236.872 106.589 236.296 107.501 236.296C108.573 236.296 109.245 237.128 109.245 238.344V243H110.813V238.12C110.813 237.96 110.797 237.784 110.781 237.608C111.293 236.872 111.933 236.296 112.845 236.296C113.917 236.296 114.589 237.128 114.589 238.344V243H116.173V238.248C116.173 236.184 115.101 234.808 113.261 234.808Z" fill="#343434"/>
<path d="M429.842 201.416C429.842 199.624 428.898 198.584 425.842 197.96C424.098 197.592 423.666 197.224 423.666 196.52C423.666 195.672 424.45 195.24 425.49 195.24C426.738 195.24 427.778 195.768 428.546 196.36L429.714 194.296C428.93 193.72 427.81 193.272 426.562 193.096V191.096H424.61V193.096C422.578 193.416 421.218 194.808 421.218 196.664C421.218 198.376 422.082 199.528 425.122 200.168C426.882 200.52 427.394 200.952 427.394 201.656C427.394 202.52 426.69 203 425.474 203C424.258 203 422.946 202.456 422.162 201.624L420.834 203.64C421.81 204.504 423.122 205.032 424.61 205.176V207.064H426.562V205.112C428.626 204.744 429.842 203.352 429.842 201.416ZM435.223 197.304L437.783 193.24H435.111L431.591 198.84C431.047 199.72 430.807 200.36 430.807 201.256C430.807 203.576 432.631 205.208 434.839 205.208C437.063 205.208 438.903 203.576 438.903 201.256C438.903 199.08 437.271 197.48 435.223 197.304ZM434.839 203.112C433.911 203.112 433.223 202.376 433.223 201.256C433.223 200.12 433.911 199.384 434.839 199.384C435.783 199.384 436.503 200.12 436.503 201.256C436.503 202.376 435.783 203.112 434.839 203.112ZM444.143 193.032C441.471 193.032 439.887 195.4 439.887 199.112C439.887 202.84 441.471 205.208 444.143 205.208C446.799 205.208 448.399 202.84 448.399 199.112C448.399 195.4 446.799 193.032 444.143 193.032ZM444.143 195.128C445.423 195.128 445.983 196.712 445.983 199.112C445.983 201.528 445.423 203.112 444.143 203.112C442.847 203.112 442.303 201.528 442.303 199.112C442.303 196.712 442.847 195.128 444.143 195.128ZM453.659 193.032C450.987 193.032 449.403 195.4 449.403 199.112C449.403 202.84 450.987 205.208 453.659 205.208C456.315 205.208 457.915 202.84 457.915 199.112C457.915 195.4 456.315 193.032 453.659 193.032ZM453.659 195.128C454.939 195.128 455.499 196.712 455.499 199.112C455.499 201.528 454.939 203.112 453.659 203.112C452.363 203.112 451.819 201.528 451.819 199.112C451.819 196.712 452.363 195.128 453.659 195.128ZM460.678 202.248C459.846 202.248 459.222 202.856 459.222 203.704C459.222 204.552 459.846 205.16 460.678 205.16C461.526 205.16 462.134 204.552 462.134 203.704C462.134 202.856 461.526 202.248 460.678 202.248ZM467.737 193.032C465.065 193.032 463.481 195.4 463.481 199.112C463.481 202.84 465.065 205.208 467.737 205.208C470.393 205.208 471.993 202.84 471.993 199.112C471.993 195.4 470.393 193.032 467.737 193.032ZM467.737 195.128C469.017 195.128 469.577 196.712 469.577 199.112C469.577 201.528 469.017 203.112 467.737 203.112C466.441 203.112 465.897 201.528 465.897 199.112C465.897 196.712 466.441 195.128 467.737 195.128ZM477.252 193.032C474.58 193.032 472.996 195.4 472.996 199.112C472.996 202.84 474.58 205.208 477.252 205.208C479.908 205.208 481.508 202.84 481.508 199.112C481.508 195.4 479.908 193.032 477.252 193.032ZM477.252 195.128C478.532 195.128 479.092 196.712 479.092 199.112C479.092 201.528 478.532 203.112 477.252 203.112C475.956 203.112 475.412 201.528 475.412 199.112C475.412 196.712 475.956 195.128 477.252 195.128Z" fill="#343434"/>
<path d="M440.757 276.624C440.757 274.816 439.701 273.888 436.837 273.264C434.853 272.848 434.261 272.4 434.261 271.36C434.261 270.096 435.221 269.52 436.501 269.52C437.733 269.52 438.837 270.048 439.637 270.672L440.421 269.28C439.573 268.672 438.517 268.208 437.253 268.064V266.096H435.924V268.064C433.941 268.272 432.629 269.568 432.629 271.456C432.629 273.216 433.509 274.16 436.373 274.784C438.357 275.2 439.125 275.76 439.125 276.784C439.125 278.048 438.085 278.72 436.613 278.72C435.333 278.72 434.005 278.176 433.173 277.344L432.261 278.704C433.221 279.552 434.469 280.064 435.924 280.176V282.064H437.253V280.176C439.429 279.936 440.757 278.56 440.757 276.624ZM448.289 268.144H448.209L441.409 277.728V277.792H446.705V280H448.289V277.792H449.873V276.352H448.289V268.144ZM446.721 272.688V276.368H444.113L446.721 272.688ZM451.691 277.968C451.547 277.968 451.371 278 451.243 278.048V282.432H451.307L452.651 279.744C452.747 279.552 452.843 279.344 452.843 279.04C452.843 278.448 452.331 277.968 451.691 277.968ZM458.454 268.032C455.814 268.032 454.326 270.4 454.326 274.112C454.326 277.84 455.814 280.208 458.454 280.208C461.078 280.208 462.566 277.84 462.566 274.112C462.566 270.4 461.078 268.032 458.454 268.032ZM458.454 269.456C460.134 269.456 460.95 271.296 460.95 274.112C460.95 276.944 460.134 278.784 458.454 278.784C456.758 278.784 455.942 276.944 455.942 274.112C455.942 271.296 456.758 269.456 458.454 269.456ZM467.876 268.032C465.236 268.032 463.748 270.4 463.748 274.112C463.748 277.84 465.236 280.208 467.876 280.208C470.5 280.208 471.988 277.84 471.988 274.112C471.988 270.4 470.5 268.032 467.876 268.032ZM467.876 269.456C469.556 269.456 470.372 271.296 470.372 274.112C470.372 276.944 469.556 278.784 467.876 278.784C466.18 278.784 465.364 276.944 465.364 274.112C465.364 271.296 466.18 269.456 467.876 269.456ZM477.298 268.032C474.658 268.032 473.17 270.4 473.17 274.112C473.17 277.84 474.658 280.208 477.298 280.208C479.922 280.208 481.41 277.84 481.41 274.112C481.41 270.4 479.922 268.032 477.298 268.032ZM477.298 269.456C478.978 269.456 479.794 271.296 479.794 274.112C479.794 276.944 478.978 278.784 477.298 278.784C475.602 278.784 474.786 276.944 474.786 274.112C474.786 271.296 475.602 269.456 477.298 269.456Z" fill="#343434"/>
<path d="M444.252 305.24H438.092V311.4L439.116 311.912C439.612 311.512 440.172 311.16 441.116 311.16C442.46 311.16 443.388 312.072 443.388 313.432C443.388 314.776 442.476 315.768 441.196 315.768C439.996 315.768 439.244 315.032 438.828 314.152L437.532 314.872C438.188 316.248 439.34 317.208 441.292 317.208C443.564 317.208 444.988 315.592 444.988 313.496C444.988 311.128 443.42 309.72 441.244 309.72C440.588 309.72 440.076 309.88 439.692 310.072V306.68H444.252V305.24ZM447.405 314.952C446.765 314.952 446.301 315.416 446.301 316.056C446.301 316.696 446.765 317.16 447.405 317.16C448.045 317.16 448.509 316.696 448.509 316.056C448.509 315.4 448.045 314.952 447.405 314.952ZM454.079 305.032C451.439 305.032 449.951 307.4 449.951 311.112C449.951 314.84 451.439 317.208 454.079 317.208C456.703 317.208 458.191 314.84 458.191 311.112C458.191 307.4 456.703 305.032 454.079 305.032ZM454.079 306.456C455.759 306.456 456.575 308.296 456.575 311.112C456.575 313.944 455.759 315.784 454.079 315.784C452.383 315.784 451.567 313.944 451.567 311.112C451.567 308.296 452.383 306.456 454.079 306.456ZM463.501 305.032C460.861 305.032 459.373 307.4 459.373 311.112C459.373 314.84 460.861 317.208 463.501 317.208C466.125 317.208 467.613 314.84 467.613 311.112C467.613 307.4 466.125 305.032 463.501 305.032ZM463.501 306.456C465.181 306.456 465.997 308.296 465.997 311.112C465.997 313.944 465.181 315.784 463.501 315.784C461.805 315.784 460.989 313.944 460.989 311.112C460.989 308.296 461.805 306.456 463.501 306.456ZM471.531 305.032C469.867 305.032 468.667 306.296 468.667 308.008C468.667 309.704 469.867 310.936 471.531 310.936C473.163 310.936 474.379 309.704 474.379 308.008C474.379 306.296 473.163 305.032 471.531 305.032ZM479.627 305.24H478.235L470.571 317H471.963L479.627 305.24ZM471.531 306.2C472.475 306.2 473.163 306.952 473.163 308.008C473.163 309.032 472.475 309.784 471.531 309.784C470.571 309.784 469.883 309.032 469.883 308.008C469.883 306.952 470.571 306.2 471.531 306.2ZM478.683 311.304C477.019 311.304 475.819 312.552 475.819 314.264C475.819 315.976 477.019 317.192 478.683 317.192C480.331 317.192 481.547 315.976 481.547 314.264C481.547 312.552 480.331 311.304 478.683 311.304ZM478.683 312.456C479.627 312.456 480.331 313.224 480.331 314.264C480.331 315.288 479.627 316.04 478.683 316.04C477.723 316.04 477.035 315.288 477.035 314.264C477.035 313.224 477.723 312.456 478.683 312.456Z" fill="#343434"/>
<path d="M409.24 231.032C407.384 231.032 406.28 232.072 405.752 233.56L407.144 234.152C407.48 233.096 408.152 232.472 409.224 232.472C410.312 232.472 411.112 233.192 411.112 234.36C411.112 235.576 410.2 236.184 409.224 236.184H407.912V237.576H409.192C410.536 237.576 411.48 238.456 411.48 239.64C411.48 240.936 410.616 241.768 409.368 241.768C408.024 241.768 407.368 241.048 407 239.912L405.56 240.296C406.136 242.136 407.288 243.208 409.368 243.208C411.608 243.208 413.064 241.768 413.064 239.64C413.064 238.28 412.296 237.32 411.112 236.872C412.024 236.456 412.696 235.688 412.696 234.376C412.696 232.424 411.288 231.032 409.24 231.032ZM417.915 235.464C417.819 235.464 417.723 235.464 417.627 235.48L420.395 231.24H418.603L414.779 237.064C414.283 237.816 414.075 238.584 414.075 239.352C414.075 241.608 415.803 243.208 417.915 243.208C420.043 243.208 421.786 241.608 421.786 239.352C421.786 237.096 420.043 235.464 417.915 235.464ZM417.915 241.784C416.667 241.784 415.691 240.792 415.691 239.352C415.691 237.896 416.667 236.888 417.915 236.888C419.179 236.888 420.187 237.896 420.187 239.352C420.187 240.792 419.179 241.784 417.915 241.784ZM436.574 234.808C435.246 234.808 434.302 235.416 433.694 236.28C433.23 235.352 432.382 234.808 431.214 234.808C429.998 234.808 429.166 235.352 428.702 235.944L428.638 234.968H427.214V243H428.782V237.56C429.294 236.872 429.902 236.296 430.814 236.296C431.886 236.296 432.558 237.128 432.558 238.344V243H434.126V238.12C434.126 237.96 434.11 237.784 434.094 237.608C434.606 236.872 435.246 236.296 436.158 236.296C437.23 236.296 437.902 237.128 437.902 238.344V243H439.486V238.248C439.486 236.184 438.414 234.808 436.574 234.808ZM445.188 234.808C442.804 234.808 441.076 236.584 441.076 239C441.076 241.416 442.804 243.16 445.188 243.16C447.572 243.16 449.316 241.416 449.316 239C449.316 236.584 447.572 234.808 445.188 234.808ZM445.188 236.2C446.66 236.2 447.732 237.384 447.732 239C447.732 240.6 446.66 241.768 445.188 241.768C443.716 241.768 442.66 240.6 442.66 239C442.66 237.384 443.716 236.2 445.188 236.2ZM455.027 234.808C453.795 234.808 452.947 235.352 452.483 235.944L452.419 234.968H450.995V243H452.563V237.576C453.059 236.872 453.699 236.296 454.643 236.296C455.779 236.296 456.499 237.128 456.499 238.344V243H458.067V238.248C458.067 236.184 456.963 234.808 455.027 234.808ZM462.422 232.248H460.854V234.968H459.286V236.312H460.854V240.312C460.854 242.168 461.958 243.16 463.67 243.16C464.454 243.16 465.014 242.968 465.398 242.728L464.95 241.448C464.694 241.576 464.326 241.736 463.75 241.736C462.982 241.736 462.422 241.224 462.422 240.312V236.312H464.95V234.968H462.422V232.248ZM468.189 230.84H466.621V243H468.189V237.576C468.685 236.872 469.325 236.296 470.269 236.296C471.405 236.296 472.125 237.128 472.125 238.344V243H473.693V238.248C473.693 236.184 472.589 234.808 470.653 234.808C469.437 234.808 468.749 235.24 468.189 235.848V230.84ZM478.511 234.808C476.639 234.808 475.471 235.72 475.471 237.256C475.471 238.504 476.271 239.16 478.207 239.608C479.375 239.88 479.855 240.136 479.855 240.792C479.855 241.48 479.199 241.8 478.239 241.8C477.279 241.8 476.495 241.48 475.887 240.968L475.167 242.232C475.919 242.824 477.007 243.16 478.223 243.16C480.191 243.16 481.439 242.168 481.439 240.632C481.439 239.432 480.591 238.664 478.671 238.2C477.503 237.928 477.039 237.736 477.039 237.096C477.039 236.44 477.615 236.168 478.447 236.168C479.375 236.168 480.111 236.488 480.623 236.84L481.279 235.592C480.639 235.144 479.583 234.808 478.511 234.808Z" fill="#343434"/>
<rect y="402" width="502" height="1" fill="#E5E5E5"/>
<path d="M24.912 423.24H21.168V435H24.912C28.96 435 31.344 432.824 31.344 429.112C31.344 425.4 28.928 423.24 24.912 423.24ZM24.832 425.496C27.472 425.496 28.864 426.824 28.864 429.128C28.864 431.416 27.488 432.76 24.832 432.76H23.616V425.496H24.832ZM40.4469 426.888H38.0789V431.992C37.7589 432.472 37.3109 432.936 36.5429 432.936C35.7429 432.936 35.3109 432.344 35.3109 431.464V426.888H32.9429V431.592C32.9429 433.768 33.9509 435.16 35.8709 435.16C37.0389 435.16 37.7909 434.712 38.2229 434.12L38.3349 435H40.4469V426.888ZM46.0135 426.728C43.5975 426.728 41.9175 428.536 41.9175 430.968C41.9175 433.4 43.6135 435.16 46.1735 435.16C47.6775 435.16 48.8295 434.616 49.6295 433.592L48.0615 432.392C47.7095 432.856 47.0695 433.208 46.2375 433.208C45.0855 433.208 44.3655 432.616 44.3175 431.592H49.7895V430.84C49.7895 428.616 48.5575 426.728 46.0135 426.728ZM45.9335 428.504C46.8935 428.504 47.4215 429.192 47.4535 430.104H44.3175C44.3495 429.176 44.9895 428.504 45.9335 428.504ZM57.9699 426.728C55.8419 426.728 54.4019 428.52 54.4019 430.952C54.4019 433.384 55.8419 435.16 57.9699 435.16C59.1219 435.16 59.8739 434.68 60.2899 434.104L60.4019 435H62.5299V426.888H60.4019L60.2899 427.8C59.8739 427.208 59.1219 426.728 57.9699 426.728ZM58.5459 428.792C59.3459 428.792 59.8099 429.224 60.1619 429.8V432.088C59.8099 432.664 59.3459 433.096 58.5459 433.096C57.5059 433.096 56.8019 432.28 56.8019 430.952C56.8019 429.624 57.5059 428.792 58.5459 428.792ZM67.484 424.2H65.116V426.888H63.66V428.888H65.116V431.976C65.116 434.024 66.38 435.16 68.38 435.16C69.196 435.16 69.804 434.936 70.236 434.664L69.628 432.792C69.404 432.904 69.068 433.048 68.572 433.048C67.932 433.048 67.484 432.632 67.484 431.944V428.888H69.804V426.888H67.484V424.2ZM78.8183 423.032C76.3063 423.032 74.5303 424.552 74.5303 426.664C74.5303 428.376 75.3943 429.528 78.4343 430.168C80.1943 430.52 80.7063 430.952 80.7063 431.656C80.7063 432.52 80.0023 433 78.7863 433C77.5703 433 76.2582 432.456 75.4743 431.624L74.1463 433.64C75.2983 434.648 76.8983 435.208 78.7063 435.208C81.4743 435.208 83.1543 433.688 83.1543 431.416C83.1543 429.624 82.2103 428.584 79.1543 427.96C77.4103 427.592 76.9783 427.224 76.9783 426.52C76.9783 425.672 77.7623 425.24 78.8023 425.24C80.0503 425.24 81.0903 425.768 81.8583 426.36L83.0263 424.296C82.0183 423.56 80.4983 423.032 78.8183 423.032ZM85.8319 422.936C85.0319 422.936 84.4559 423.528 84.4559 424.328C84.4559 425.128 85.0319 425.72 85.8319 425.72C86.6319 425.72 87.2239 425.128 87.2239 424.328C87.2239 423.528 86.6319 422.936 85.8319 422.936ZM87.0159 426.888H84.6479V435H87.0159V426.888ZM92.0804 426.728C89.9204 426.728 88.4644 428.472 88.4644 430.856C88.4644 433.24 89.9204 434.968 92.0804 434.968C93.2324 434.968 93.9364 434.536 94.3204 434.088V434.712C94.3044 435.912 93.5844 436.776 92.3364 436.776C91.2324 436.776 90.5284 436.232 89.9364 435.544L88.3844 437.112C89.3124 438.136 90.5124 438.84 92.3684 438.84C94.9924 438.84 96.6884 437.256 96.6884 434.664V426.888H94.5764L94.4484 427.8C94.0324 427.208 93.2484 426.728 92.0804 426.728ZM92.6564 428.792C93.4724 428.792 93.9684 429.224 94.3204 429.8V431.896C93.9684 432.472 93.4724 432.92 92.6564 432.92C91.5844 432.92 90.8484 432.136 90.8484 430.856C90.8484 429.576 91.5844 428.792 92.6564 428.792ZM103.176 426.728C102.072 426.728 101.288 427.192 100.888 427.784L100.776 426.888H98.6479V435H101.016V429.896C101.32 429.416 101.816 428.952 102.536 428.952C103.368 428.952 103.864 429.56 103.864 430.456V435H106.232V430.328C106.232 428.136 105.16 426.728 103.176 426.728ZM109.269 422.936C108.469 422.936 107.893 423.528 107.893 424.328C107.893 425.128 108.469 425.72 109.269 425.72C110.069 425.72 110.661 425.128 110.661 424.328C110.661 423.528 110.069 422.936 109.269 422.936ZM110.453 426.888H108.085V435H110.453V426.888ZM116.926 426.728C115.822 426.728 115.038 427.192 114.638 427.784L114.526 426.888H112.398V435H114.766V429.896C115.07 429.416 115.566 428.952 116.286 428.952C117.118 428.952 117.614 429.56 117.614 430.456V435H119.982V430.328C119.982 428.136 118.91 426.728 116.926 426.728ZM124.955 426.728C122.795 426.728 121.339 428.472 121.339 430.856C121.339 433.24 122.795 434.968 124.955 434.968C126.107 434.968 126.811 434.536 127.195 434.088V434.712C127.179 435.912 126.459 436.776 125.211 436.776C124.107 436.776 123.403 436.232 122.811 435.544L121.259 437.112C122.187 438.136 123.387 438.84 125.243 438.84C127.867 438.84 129.563 437.256 129.563 434.664V426.888H127.451L127.323 427.8C126.907 427.208 126.123 426.728 124.955 426.728ZM125.531 428.792C126.347 428.792 126.843 429.224 127.195 429.8V431.896C126.843 432.472 126.347 432.92 125.531 432.92C124.459 432.92 123.723 432.136 123.723 430.856C123.723 429.576 124.459 428.792 125.531 428.792Z" fill="#343434"/>
<path d="M414.757 431.624C414.757 429.816 413.701 428.888 410.837 428.264C408.853 427.848 408.261 427.4 408.261 426.36C408.261 425.096 409.221 424.52 410.501 424.52C411.733 424.52 412.837 425.048 413.637 425.672L414.421 424.28C413.573 423.672 412.517 423.208 411.253 423.064V421.096H409.924V423.064C407.941 423.272 406.629 424.568 406.629 426.456C406.629 428.216 407.509 429.16 410.373 429.784C412.357 430.2 413.125 430.76 413.125 431.784C413.125 433.048 412.085 433.72 410.613 433.72C409.333 433.72 408.005 433.176 407.173 432.344L406.261 433.704C407.221 434.552 408.469 435.064 409.924 435.176V437.064H411.253V435.176C413.429 434.936 414.757 433.56 414.757 431.624ZM422.289 423.144H422.209L415.409 432.728V432.792H420.705V435H422.289V432.792H423.873V431.352H422.289V423.144ZM420.721 427.688V431.368H418.113L420.721 427.688ZM425.691 432.968C425.547 432.968 425.371 433 425.243 433.048V437.432H425.307L426.651 434.744C426.747 434.552 426.843 434.344 426.843 434.04C426.843 433.448 426.331 432.968 425.691 432.968ZM432.454 423.032C429.814 423.032 428.326 425.4 428.326 429.112C428.326 432.84 429.814 435.208 432.454 435.208C435.078 435.208 436.566 432.84 436.566 429.112C436.566 425.4 435.078 423.032 432.454 423.032ZM432.454 424.456C434.134 424.456 434.95 426.296 434.95 429.112C434.95 431.944 434.134 433.784 432.454 433.784C430.758 433.784 429.942 431.944 429.942 429.112C429.942 426.296 430.758 424.456 432.454 424.456ZM441.876 423.032C439.236 423.032 437.748 425.4 437.748 429.112C437.748 432.84 439.236 435.208 441.876 435.208C444.5 435.208 445.988 432.84 445.988 429.112C445.988 425.4 444.5 423.032 441.876 423.032ZM441.876 424.456C443.556 424.456 444.372 426.296 444.372 429.112C444.372 431.944 443.556 433.784 441.876 433.784C440.18 433.784 439.364 431.944 439.364 429.112C439.364 426.296 440.18 424.456 441.876 424.456ZM451.298 423.032C448.658 423.032 447.17 425.4 447.17 429.112C447.17 432.84 448.658 435.208 451.298 435.208C453.922 435.208 455.41 432.84 455.41 429.112C455.41 425.4 453.922 423.032 451.298 423.032ZM451.298 424.456C452.978 424.456 453.794 426.296 453.794 429.112C453.794 431.944 452.978 433.784 451.298 433.784C449.602 433.784 448.786 431.944 448.786 429.112C448.786 426.296 449.602 424.456 451.298 424.456Z" fill="#343434"/>
<path fill-rule="evenodd" clip-rule="evenodd" d="M469.294 426.646L468.822 427.118L473.952 432.248L473.976 432.224L474 432.248L479.13 427.118L478.658 426.646L473.976 431.329L469.294 426.646Z" fill="#343434"/>
<mask id="mask0_2988_56013" style="mask-type:alpha" maskUnits="userSpaceOnUse" x="468" y="426" width="12" height="7">
<path fill-rule="evenodd" clip-rule="evenodd" d="M469.294 426.646L468.822 427.118L473.952 432.248L473.976 432.224L474 432.248L479.13 427.118L478.658 426.646L473.976 431.329L469.294 426.646Z" fill="white"/>
</mask>
<g mask="url(#mask0_2988_56013)">
<rect width="16" height="16" transform="translate(466 421)" fill="#343434"/>
<rect x="466" y="421" width="16" height="16" fill="#343434"/>
</g>
<rect y="455" width="502" height="1" fill="#E5E5E5"/>
<rect y="455" width="502" height="1" fill="#E5E5E5"/>
<path d="M25.824 476.032H25.76L20.08 488H22.784L23.552 486.192H28.048L28.8 488H31.52L25.824 476.032ZM25.792 480.768L27.28 484.272H24.32L25.792 480.768ZM42.2018 479.728C40.9538 479.728 40.1218 480.304 39.5458 481.12C39.0658 480.24 38.2498 479.728 37.1138 479.728C35.9778 479.728 35.2258 480.208 34.8098 480.784L34.6978 479.888H32.5698V488H34.9378V482.896C35.2738 482.416 35.7218 481.952 36.4418 481.952C37.2258 481.952 37.6578 482.56 37.6578 483.456V488H40.0258V483.088V482.896C40.3458 482.4 40.8098 481.952 41.5138 481.952C42.2978 481.952 42.7458 482.56 42.7458 483.456V488H45.1138V483.328C45.1138 481.136 44.0898 479.728 42.2018 479.728ZM50.7676 479.728C48.3036 479.728 46.4956 481.536 46.4956 483.968C46.4956 486.4 48.3036 488.16 50.7676 488.16C53.2316 488.16 55.0556 486.4 55.0556 483.968C55.0556 481.536 53.2316 479.728 50.7676 479.728ZM50.7676 481.792C51.8876 481.792 52.6716 482.688 52.6716 483.968C52.6716 485.216 51.8876 486.096 50.7676 486.096C49.6636 486.096 48.8956 485.216 48.8956 483.968C48.8956 482.688 49.6636 481.792 50.7676 481.792ZM63.9313 479.888H61.5633V484.992C61.2433 485.472 60.7953 485.936 60.0273 485.936C59.2273 485.936 58.7953 485.344 58.7953 484.464V479.888H56.4273V484.592C56.4273 486.768 57.4353 488.16 59.3553 488.16C60.5233 488.16 61.2753 487.712 61.7073 487.12L61.8193 488H63.9313V479.888ZM70.4259 479.728C69.3219 479.728 68.5379 480.192 68.1379 480.784L68.0259 479.888H65.8979V488H68.2659V482.896C68.5699 482.416 69.0659 481.952 69.7859 481.952C70.6179 481.952 71.1139 482.56 71.1139 483.456V488H73.4819V483.328C73.4819 481.136 72.4099 479.728 70.4259 479.728ZM78.3434 477.2H75.9754V479.888H74.5194V481.888H75.9754V484.976C75.9754 487.024 77.2394 488.16 79.2394 488.16C80.0554 488.16 80.6634 487.936 81.0954 487.664L80.4874 485.792C80.2634 485.904 79.9274 486.048 79.4314 486.048C78.7914 486.048 78.3434 485.632 78.3434 484.944V481.888H80.6634V479.888H78.3434V477.2ZM93.3096 476.24H85.9336V488H88.3816V483.264H92.4616V481.168H88.3816V478.48H93.3096V476.24ZM95.8006 475.936C95.0006 475.936 94.4246 476.528 94.4246 477.328C94.4246 478.128 95.0006 478.72 95.8006 478.72C96.6006 478.72 97.1926 478.128 97.1926 477.328C97.1926 476.528 96.6006 475.936 95.8006 475.936ZM96.9846 479.888H94.6166V488H96.9846V479.888ZM103.457 479.728C102.353 479.728 101.569 480.192 101.169 480.784L101.057 479.888H98.9291V488H101.297V482.896C101.601 482.416 102.097 481.952 102.817 481.952C103.649 481.952 104.145 482.56 104.145 483.456V488H106.513V483.328C106.513 481.136 105.441 479.728 103.457 479.728ZM111.439 479.728C109.311 479.728 107.871 481.52 107.871 483.952C107.871 486.384 109.311 488.16 111.439 488.16C112.591 488.16 113.343 487.68 113.759 487.104L113.871 488H115.999V479.888H113.871L113.759 480.8C113.343 480.208 112.591 479.728 111.439 479.728ZM112.015 481.792C112.815 481.792 113.279 482.224 113.631 482.8V485.088C113.279 485.664 112.815 486.096 112.015 486.096C110.975 486.096 110.271 485.28 110.271 483.952C110.271 482.624 110.975 481.792 112.015 481.792ZM122.473 479.728C121.369 479.728 120.585 480.192 120.185 480.784L120.073 479.888H117.945V488H120.313V482.896C120.617 482.416 121.113 481.952 121.833 481.952C122.665 481.952 123.161 482.56 123.161 483.456V488H125.529V483.328C125.529 481.136 124.457 479.728 122.473 479.728ZM131.094 479.728C128.63 479.728 126.886 481.52 126.886 483.952C126.886 486.384 128.63 488.16 131.094 488.16C132.614 488.16 133.75 487.424 134.438 486.24L132.838 485.072C132.47 485.68 131.942 486.112 131.142 486.112C129.942 486.112 129.286 485.152 129.286 483.952C129.286 482.736 129.926 481.776 131.11 481.776C131.926 481.776 132.438 482.208 132.774 482.816L134.422 481.6C133.702 480.432 132.614 479.728 131.094 479.728ZM139.232 479.728C136.816 479.728 135.136 481.536 135.136 483.968C135.136 486.4 136.832 488.16 139.392 488.16C140.896 488.16 142.048 487.616 142.848 486.592L141.28 485.392C140.928 485.856 140.288 486.208 139.456 486.208C138.304 486.208 137.584 485.616 137.536 484.592H143.008V483.84C143.008 481.616 141.776 479.728 139.232 479.728ZM139.152 481.504C140.112 481.504 140.64 482.192 140.672 483.104H137.536C137.568 482.176 138.208 481.504 139.152 481.504ZM152.345 475.84H149.977V480.624C149.593 480.176 148.889 479.728 147.737 479.728C145.577 479.728 144.105 481.52 144.105 483.952C144.105 486.384 145.577 488.16 147.737 488.16C148.889 488.16 149.689 487.68 150.105 487.104L150.217 488H152.345V475.84ZM148.313 481.792C149.113 481.792 149.625 482.224 149.977 482.816V485.088C149.625 485.664 149.113 486.096 148.313 486.096C147.241 486.096 146.505 485.28 146.505 483.952C146.505 482.624 147.241 481.792 148.313 481.792Z" fill="#343434"/>
<path d="M409.444 484.624C409.444 482.816 408.388 481.888 405.524 481.264C403.54 480.848 402.948 480.4 402.948 479.36C402.948 478.096 403.908 477.52 405.188 477.52C406.42 477.52 407.524 478.048 408.324 478.672L409.108 477.28C408.26 476.672 407.204 476.208 405.94 476.064V474.096H404.612V476.064C402.628 476.272 401.316 477.568 401.316 479.456C401.316 481.216 402.196 482.16 405.06 482.784C407.044 483.2 407.812 483.76 407.812 484.784C407.812 486.048 406.772 486.72 405.3 486.72C404.02 486.72 402.692 486.176 401.86 485.344L400.948 486.704C401.908 487.552 403.156 488.064 404.612 488.176V490.064H405.94V488.176C408.116 487.936 409.444 486.56 409.444 484.624ZM414.688 476.032H414.624L410.304 478.8L411.008 480.192L413.104 478.96V488H414.688V476.032ZM422.961 476.144H422.881L416.081 485.728V485.792H421.377V488H422.961V485.792H424.545V484.352H422.961V476.144ZM421.393 480.688V484.368H418.785L421.393 480.688ZM426.363 485.968C426.219 485.968 426.043 486 425.915 486.048V490.432H425.979L427.323 487.744C427.419 487.552 427.515 487.344 427.515 487.04C427.515 486.448 427.003 485.968 426.363 485.968ZM432.758 480.464C432.662 480.464 432.566 480.464 432.47 480.48L435.238 476.24H433.446L429.622 482.064C429.126 482.816 428.918 483.584 428.918 484.352C428.918 486.608 430.646 488.208 432.758 488.208C434.886 488.208 436.63 486.608 436.63 484.352C436.63 482.096 434.886 480.464 432.758 480.464ZM432.758 486.784C431.51 486.784 430.534 485.792 430.534 484.352C430.534 482.896 431.51 481.888 432.758 481.888C434.022 481.888 435.03 482.896 435.03 484.352C435.03 485.792 434.022 486.784 432.758 486.784ZM441.876 476.032C439.236 476.032 437.748 478.4 437.748 482.112C437.748 485.84 439.236 488.208 441.876 488.208C444.5 488.208 445.988 485.84 445.988 482.112C445.988 478.4 444.5 476.032 441.876 476.032ZM441.876 477.456C443.556 477.456 444.372 479.296 444.372 482.112C444.372 484.944 443.556 486.784 441.876 486.784C440.18 486.784 439.364 484.944 439.364 482.112C439.364 479.296 440.18 477.456 441.876 477.456ZM451.298 476.032C448.658 476.032 447.17 478.4 447.17 482.112C447.17 485.84 448.658 488.208 451.298 488.208C453.922 488.208 455.41 485.84 455.41 482.112C455.41 478.4 453.922 476.032 451.298 476.032ZM451.298 477.456C452.978 477.456 453.794 479.296 453.794 482.112C453.794 484.944 452.978 486.784 451.298 486.784C449.602 486.784 448.786 484.944 448.786 482.112C448.786 479.296 449.602 477.456 451.298 477.456Z" fill="#343434"/>
<path fill-rule="evenodd" clip-rule="evenodd" d="M469.294 479.646L468.822 480.118L473.952 485.248L473.976 485.224L474 485.248L479.13 480.118L478.658 479.646L473.976 484.329L469.294 479.646Z" fill="#343434"/>
<mask id="mask1_2988_56013" style="mask-type:alpha" maskUnits="userSpaceOnUse" x="468" y="479" width="12" height="7">
<path fill-rule="evenodd" clip-rule="evenodd" d="M469.294 479.646L468.822 480.118L473.952 485.248L473.976 485.224L474 485.248L479.13 480.118L478.658 479.646L473.976 484.329L469.294 479.646Z" fill="white"/>
</mask>
<g mask="url(#mask1_2988_56013)">
<rect width="16" height="16" transform="translate(466 474)" fill="#343434"/>
<rect x="466" y="474" width="16" height="16" fill="#343434"/>
</g>
<rect y="508" width="502" height="1" fill="#E5E5E5"/>
<rect x="0.5" y="109.5" width="501" height="399" rx="4.5" stroke="#E5E5E5"/>
<rect x="533" y="269" width="395" height="48" rx="24" fill="#1979C7"/>
<path d="M693.327 287.032H693.263L687.855 299H689.599L690.655 296.6H695.935L696.991 299H698.735L693.327 287.032ZM693.295 290.632L695.327 295.176H691.263L693.295 290.632ZM707 286.84H705.432V291.832C704.952 291.272 704.136 290.808 702.936 290.808C700.728 290.808 699.224 292.568 699.224 294.984C699.224 297.4 700.728 299.16 702.936 299.16C704.2 299.16 705.048 298.632 705.512 298.024L705.576 299H707V286.84ZM703.224 292.2C704.296 292.2 704.952 292.776 705.432 293.56V296.408C704.952 297.192 704.296 297.768 703.224 297.768C701.816 297.768 700.808 296.648 700.808 294.984C700.808 293.32 701.816 292.2 703.224 292.2ZM716.453 286.84H714.885V291.832C714.405 291.272 713.589 290.808 712.389 290.808C710.181 290.808 708.677 292.568 708.677 294.984C708.677 297.4 710.181 299.16 712.389 299.16C713.653 299.16 714.501 298.632 714.965 298.024L715.029 299H716.453V286.84ZM712.677 292.2C713.749 292.2 714.405 292.776 714.885 293.56V296.408C714.405 297.192 713.749 297.768 712.677 297.768C711.269 297.768 710.261 296.648 710.261 294.984C710.261 293.32 711.269 292.2 712.677 292.2ZM724.711 288.248H723.143V290.968H721.575V292.312H723.143V296.312C723.143 298.168 724.247 299.16 725.959 299.16C726.743 299.16 727.303 298.968 727.687 298.728L727.239 297.448C726.983 297.576 726.615 297.736 726.039 297.736C725.271 297.736 724.711 297.224 724.711 296.312V292.312H727.239V290.968H724.711V288.248ZM732.43 290.808C730.046 290.808 728.318 292.584 728.318 295C728.318 297.416 730.046 299.16 732.43 299.16C734.814 299.16 736.558 297.416 736.558 295C736.558 292.584 734.814 290.808 732.43 290.808ZM732.43 292.2C733.902 292.2 734.974 293.384 734.974 295C734.974 296.6 733.902 297.768 732.43 297.768C730.958 297.768 729.902 296.6 729.902 295C729.902 293.384 730.958 292.2 732.43 292.2ZM747.362 287.032C743.954 287.032 741.49 289.624 741.49 293.128C741.49 296.616 743.954 299.208 747.362 299.208C749.106 299.208 750.53 298.648 751.634 297.448L750.61 296.232C749.858 297.096 748.77 297.704 747.362 297.704C744.866 297.704 743.138 295.768 743.138 293.128C743.138 290.472 744.866 288.536 747.362 288.536C748.722 288.536 749.778 289.112 750.53 289.928L751.57 288.744C750.482 287.64 749.17 287.032 747.362 287.032ZM756.216 290.808C754.024 290.808 752.568 292.568 752.568 294.984C752.568 297.4 754.024 299.16 756.216 299.16C757.464 299.16 758.264 298.632 758.728 298.024L758.792 299H760.216V290.968H758.792L758.728 291.944C758.264 291.336 757.464 290.808 756.216 290.808ZM756.504 292.2C757.56 292.2 758.168 292.776 758.648 293.56V296.408C758.168 297.192 757.56 297.768 756.504 297.768C755.112 297.768 754.152 296.648 754.152 294.984C754.152 293.32 755.112 292.2 756.504 292.2ZM766.344 290.808C765.16 290.808 764.36 291.416 763.96 292.056L763.88 290.968H762.456V299H764.024V293.72C764.568 292.936 765.208 292.376 766.2 292.376H766.344V290.808ZM770.242 288.248H768.674V290.968H767.106V292.312H768.674V296.312C768.674 298.168 769.778 299.16 771.49 299.16C772.274 299.16 772.834 298.968 773.218 298.728L772.77 297.448C772.514 297.576 772.146 297.736 771.57 297.736C770.802 297.736 770.242 297.224 770.242 296.312V292.312H772.77V290.968H770.242V288.248Z" fill="white"/>
</svg>
