<svg xmlns="http://www.w3.org/2000/svg" xmlns:xlink="http://www.w3.org/1999/xlink" viewBox="0 0 186.51 81.52"><defs><style>.cls-1{fill:#006c90;}.cls-2{fill:url(#linear-gradient);}.cls-3{fill:url(#linear-gradient-2);}.cls-4{fill:url(#linear-gradient-3);}.cls-5{fill:url(#linear-gradient-4);}</style><linearGradient id="linear-gradient" x1="4.56" y1="78.43" x2="14.5" y2="45.85" gradientUnits="userSpaceOnUse"><stop offset="0" stop-color="#006c90"/><stop offset="1" stop-color="#00aabc"/></linearGradient><linearGradient id="linear-gradient-2" x1="44.4" y1="83.08" x2="32.96" y2="44.54" xlink:href="#linear-gradient"/><linearGradient id="linear-gradient-3" x1="47.47" y1="73.16" x2="35.88" y2="53.28" xlink:href="#linear-gradient"/><linearGradient id="linear-gradient-4" x1="21.9" y1="66.7" x2="24.34" y2="24.26" gradientUnits="userSpaceOnUse"><stop offset="0" stop-color="#ee2947"/><stop offset="1" stop-color="#ffca26"/></linearGradient></defs><title>Asset 6</title><g id="Layer_2" data-name="Layer 2"><g id="Logos"><path class="cls-1" d="M56.37,66.05A7.71,7.71,0,1,0,64.24,77c.08-.21,0-.22-.2-.22H61.73c-.37,0-.45.16-.45.16a5.13,5.13,0,0,1-9-1.9H64.31a.63.63,0,0,0,.62-.66c0-.21,0-.41,0-.62A7.72,7.72,0,0,0,56.37,66.05Zm-4.11,6.4a5.15,5.15,0,0,1,10,0Z"/><path class="cls-1" d="M99.4,66H97.57a.35.35,0,0,0-.35.35v8.32a4.22,4.22,0,1,1-8.44,0h0V66.36a.35.35,0,0,0-.36-.35H86.6a.35.35,0,0,0-.35.35v8.32a6.75,6.75,0,0,0,13.5,0V66.36A.35.35,0,0,0,99.4,66Z"/><path class="cls-1" d="M132,66h-1.82a.35.35,0,0,0-.36.35V68a7.72,7.72,0,1,0,0,11.39V81a.36.36,0,0,0,.36.35H132a.35.35,0,0,0,.35-.35V66.36A.35.35,0,0,0,132,66Zm-7.36,12.87a5.16,5.16,0,1,1,5.15-5.16A5.16,5.16,0,0,1,124.65,78.88Z"/><path class="cls-1" d="M82.48,60.4H80.66a.36.36,0,0,0-.36.35V68a7.72,7.72,0,1,0,0,11.39V81a.36.36,0,0,0,.36.35h1.82a.35.35,0,0,0,.35-.35V60.75A.35.35,0,0,0,82.48,60.4ZM75.12,78.88a5.16,5.16,0,1,1,5.15-5.16A5.16,5.16,0,0,1,75.12,78.88Z"/><rect class="cls-1" x="150.09" y="66.01" width="2.53" height="15.31" rx="0.35"/><path class="cls-1" d="M151.35,60.58a1.87,1.87,0,1,0,1.87,1.87A1.87,1.87,0,0,0,151.35,60.58Z"/><path class="cls-1" d="M113.77,77.61a.33.33,0,0,0-.48,0h0a5.16,5.16,0,1,1,0-7.75h0a.35.35,0,0,0,.48,0l1.33-1.33h0a.36.36,0,0,0,0-.46,7.63,7.63,0,0,0-5.21-2,7.71,7.71,0,1,0,5.23,13.36.32.32,0,0,0,0-.44Z"/><path class="cls-1" d="M162.78,66a7.71,7.71,0,1,0,7.71,7.71A7.71,7.71,0,0,0,162.78,66Zm0,12.87a5.16,5.16,0,1,1,5.16-5.16A5.16,5.16,0,0,1,162.78,78.88Z"/><path class="cls-1" d="M179.71,65.9a6.71,6.71,0,0,0-4.22,1.49v-1a.35.35,0,0,0-.35-.35h-1.82a.36.36,0,0,0-.36.35v6.29h0V81a.36.36,0,0,0,.36.35h1.82a.35.35,0,0,0,.35-.35V72.65h0a4.23,4.23,0,0,1,8.45,0h0V81a.35.35,0,0,0,.35.35h1.82a.35.35,0,0,0,.35-.35V72.65h0A6.75,6.75,0,0,0,179.71,65.9Z"/><path class="cls-1" d="M135.3,68.53H140V81a.35.35,0,0,0,.35.35h1.83a.35.35,0,0,0,.35-.35V68.53h4.67a.35.35,0,0,0,.35-.35V66.35a.35.35,0,0,0-.35-.35h-4.67V60.75a.35.35,0,0,0-.35-.35h-1.83a.35.35,0,0,0-.35.35V66H135.3a.35.35,0,0,0-.35.35v1.83A.35.35,0,0,0,135.3,68.53Z"/><path class="cls-1" d="M130.93,36.94a6.71,6.71,0,0,0-4.22,1.49v-1a.35.35,0,0,0-.35-.35h-1.83a.35.35,0,0,0-.35.35v6.29h0V52a.35.35,0,0,0,.35.35h1.83a.35.35,0,0,0,.35-.35V43.69h0a4.23,4.23,0,0,1,8.45,0h0V52a.35.35,0,0,0,.35.35h1.82a.35.35,0,0,0,.35-.35V43.69h0A6.75,6.75,0,0,0,130.93,36.94Z"/><path class="cls-1" d="M178.8,52.48a7.7,7.7,0,0,0,7-4.48c.08-.2,0-.21-.2-.21h-2.31c-.37,0-.46.15-.46.15a5.09,5.09,0,0,1-4,2,5.15,5.15,0,0,1-5-3.87h12.05a.64.64,0,0,0,.62-.67c0-.2,0-.41,0-.62a7.72,7.72,0,1,0-7.71,7.72Zm-5-9a5.16,5.16,0,0,1,10,0h-10Z"/><rect class="cls-1" x="66.64" y="31.45" width="2.53" height="20.91" rx="0.35"/><rect class="cls-1" x="72.57" y="31.45" width="2.53" height="20.91" rx="0.35"/><path class="cls-1" d="M92,37.4a.35.35,0,0,0-.35-.35H89.84a.35.35,0,0,0-.35.35v8.33a4.23,4.23,0,0,1-8.45,0V37.4a.35.35,0,0,0-.35-.35H78.86a.35.35,0,0,0-.35.35v8.33a6.75,6.75,0,1,0,13.5,0Z"/><path class="cls-1" d="M155.48,52V37.4a.36.36,0,0,0-.36-.35H153.3a.35.35,0,0,0-.35.35v1.67a7.71,7.71,0,1,0,0,11.39V52a.35.35,0,0,0,.35.35h1.82A.36.36,0,0,0,155.48,52Zm-7.72-2.09a5.16,5.16,0,1,1,5.16-5.16A5.15,5.15,0,0,1,147.76,49.92Z"/><path class="cls-1" d="M158.32,39.57H163V52a.35.35,0,0,0,.35.35h1.82a.35.35,0,0,0,.35-.35V39.57h4.67a.35.35,0,0,0,.35-.35V37.4a.35.35,0,0,0-.35-.35h-4.67V31.8a.34.34,0,0,0-.35-.35h-1.82a.34.34,0,0,0-.35.35v5.25h-4.67a.35.35,0,0,0-.35.35v1.82A.35.35,0,0,0,158.32,39.57Z"/><rect class="cls-1" x="60.69" y="37.05" width="2.53" height="15.31" rx="0.35"/><path class="cls-1" d="M62,35.19a1.87,1.87,0,1,0-1.87-1.87A1.87,1.87,0,0,0,62,35.19Z"/><rect class="cls-1" x="118.23" y="37.05" width="2.53" height="15.31" rx="0.35"/><path class="cls-1" d="M119.5,31.45a1.87,1.87,0,1,0,1.86,1.87A1.86,1.86,0,0,0,119.5,31.45Z"/><path class="cls-1" d="M109.34,39.26a2.83,2.83,0,0,1,3,2.7V52a.35.35,0,0,0,.35.35h1.82a.36.36,0,0,0,.36-.35V42a5.26,5.26,0,0,0-5.48-5,5.71,5.71,0,0,0-4.22,1.81A5.67,5.67,0,0,0,100.91,37a5.79,5.79,0,0,0-2.94.79V37.4a.35.35,0,0,0-.35-.35H95.79a.35.35,0,0,0-.35.35V52a.35.35,0,0,0,.35.35h1.83A.35.35,0,0,0,98,52V41.89a3,3,0,0,1,5.9.07V52a.35.35,0,0,0,.35.35H106a.35.35,0,0,0,.35-.35V42A2.83,2.83,0,0,1,109.34,39.26Z"/><path class="cls-2" d="M10.11,62.4a32,32,0,0,1-3.67-23A53.22,53.22,0,0,1,9.83,28.89c-.74.66-1.45,1.33-2.14,2A30.5,30.5,0,0,0,2.5,37.8,20.4,20.4,0,0,0,.06,45.85,19.63,19.63,0,0,0,1.3,54.2a29,29,0,0,0,4.23,7.57,46,46,0,0,0,6,6.48,59.52,59.52,0,0,0,7.07,5.44c.64.41,1.28.82,1.94,1.22-1.15-1-2.27-2.11-3.34-3.22A48.13,48.13,0,0,1,10.11,62.4Z"/><path class="cls-3" d="M36.4,62.12,39.28,59a50.74,50.74,0,0,0,5.15-6.47,23.34,23.34,0,0,0,3.2-7.36,20.35,20.35,0,0,0,.21-7.93A35.74,35.74,0,0,0,43.23,25.2c-.08.32-.17.65-.27,1a22.51,22.51,0,0,1-1.72,4.19,30.18,30.18,0,0,1-5.35,7.14c-2,2-4.14,4-6.07,6A38.44,38.44,0,0,0,24.7,50a21,21,0,0,0-2.8,7.65,23.11,23.11,0,0,0,.28,8.24,38.42,38.42,0,0,0,2.63,8,71.79,71.79,0,0,0,4,7.57,28,28,0,0,1,1.06-8.42,25.5,25.5,0,0,1,3.78-7.71A34,34,0,0,1,36.4,62.12Z"/><path class="cls-4" d="M52,47.76c0-.53-.07-1.06-.14-1.58A24,24,0,0,1,48,54a46.86,46.86,0,0,1-5.75,6.4l-3.08,2.9a35.29,35.29,0,0,0-2.92,3A25.5,25.5,0,0,0,32,73.35a20.72,20.72,0,0,0-1.36,5.46,12.36,12.36,0,0,1,2.75-5A35.83,35.83,0,0,1,38,69.4c.82-.67,1.65-1.31,2.49-1.93s1.69-1.24,2.47-1.88a29.24,29.24,0,0,0,4.32-4.22,23.24,23.24,0,0,0,3.15-5,18.66,18.66,0,0,0,1.53-5.65A23.74,23.74,0,0,0,52,47.76Z"/><path class="cls-5" d="M21.8,46.93C30.65,32.36,50.85,24.48,24.29,0c0,0,1.77,7.2-2.9,17.57-4.42,9.82-25.65,33.5,4.4,61C25.79,78.53,13,61.5,21.8,46.93Z"/></g></g></svg>