<svg xmlns="http://www.w3.org/2000/svg" xmlns:xlink="http://www.w3.org/1999/xlink" viewBox="0 0 186.38 81.46"><defs><style>.cls-1{fill:#fff;}.cls-2{fill:url(#linear-gradient);}</style><linearGradient id="linear-gradient" x1="24.17" y1="78.13" x2="23.51" y2="13.27" gradientUnits="userSpaceOnUse"><stop offset="0" stop-color="#fff" stop-opacity="0"/><stop offset="0.09" stop-color="#fff" stop-opacity="0.16"/><stop offset="0.23" stop-color="#fff" stop-opacity="0.38"/><stop offset="0.36" stop-color="#fff" stop-opacity="0.57"/><stop offset="0.5" stop-color="#fff" stop-opacity="0.72"/><stop offset="0.63" stop-color="#fff" stop-opacity="0.84"/><stop offset="0.76" stop-color="#fff" stop-opacity="0.93"/><stop offset="0.89" stop-color="#fff" stop-opacity="0.98"/><stop offset="1" stop-color="#fff"/></linearGradient></defs><title>Asset 6</title><g id="Layer_2" data-name="Layer 2"><g id="Logos"><path class="cls-1" d="M56.34,66a7.71,7.71,0,1,0,7.87,10.9c.08-.21,0-.22-.2-.22H61.7c-.37,0-.45.15-.45.15a5.13,5.13,0,0,1-9-1.89H64.28a.63.63,0,0,0,.62-.66c0-.21,0-.41,0-.62A7.71,7.71,0,0,0,56.34,66Zm-4.11,6.39a5.15,5.15,0,0,1,10,0Z"/><path class="cls-1" d="M99.34,66H97.52a.35.35,0,0,0-.35.35v8.32a4.23,4.23,0,0,1-8.45,0h0V66.33a.35.35,0,0,0-.35-.35H86.55a.35.35,0,0,0-.35.35v8.32a6.75,6.75,0,1,0,13.49,0V66.33A.35.35,0,0,0,99.34,66Z"/><path class="cls-1" d="M131.93,66H130.1a.35.35,0,0,0-.35.35V68a7.71,7.71,0,1,0,0,11.38v1.55a.35.35,0,0,0,.35.35h1.83a.35.35,0,0,0,.35-.35V66.33A.35.35,0,0,0,131.93,66Zm-7.36,12.86a5.15,5.15,0,1,1,5.15-5.15A5.14,5.14,0,0,1,124.57,78.84Z"/><path class="cls-1" d="M82.43,60.38H80.61a.35.35,0,0,0-.35.35V68a7.71,7.71,0,1,0,0,11.38v1.55a.34.34,0,0,0,.35.35h1.82a.35.35,0,0,0,.35-.35V60.73A.35.35,0,0,0,82.43,60.38ZM75.07,78.84a5.15,5.15,0,1,1,5.16-5.15A5.15,5.15,0,0,1,75.07,78.84Z"/><rect class="cls-1" x="149.99" y="65.98" width="2.52" height="15.3" rx="0.35"/><path class="cls-1" d="M151.25,60.56a1.87,1.87,0,1,0,1.87,1.87A1.87,1.87,0,0,0,151.25,60.56Z"/><path class="cls-1" d="M113.7,77.57a.36.36,0,0,0-.49,0h0a5.15,5.15,0,1,1,0-7.74h0a.35.35,0,0,0,.48,0L115,68.49h0a.38.38,0,0,0,0-.47,7.72,7.72,0,1,0,0,11.31.31.31,0,0,0,0-.43Z"/><path class="cls-1" d="M162.67,66a7.71,7.71,0,1,0,7.71,7.71A7.71,7.71,0,0,0,162.67,66Zm0,12.86a5.15,5.15,0,1,1,5.16-5.15A5.15,5.15,0,0,1,162.67,78.84Z"/><path class="cls-1" d="M179.6,65.88a6.74,6.74,0,0,0-4.23,1.49v-1A.34.34,0,0,0,175,66H173.2a.35.35,0,0,0-.35.35v6.28h0v8.31a.35.35,0,0,0,.35.35H175a.34.34,0,0,0,.35-.35V72.62h0a4.23,4.23,0,0,1,8.45,0h0v8.31a.34.34,0,0,0,.35.35H186a.35.35,0,0,0,.35-.35V72.62h0A6.74,6.74,0,0,0,179.6,65.88Z"/><path class="cls-1" d="M135.21,68.5h4.66V80.93a.35.35,0,0,0,.35.35h1.83a.35.35,0,0,0,.35-.35V68.5h4.66a.35.35,0,0,0,.35-.35V66.33a.35.35,0,0,0-.35-.35H142.4V60.73a.35.35,0,0,0-.35-.35h-1.83a.35.35,0,0,0-.35.35V66h-4.66a.35.35,0,0,0-.35.35v1.82A.35.35,0,0,0,135.21,68.5Z"/><path class="cls-1" d="M130.85,36.94a6.69,6.69,0,0,0-4.22,1.49v-1a.35.35,0,0,0-.35-.35h-1.82a.35.35,0,0,0-.35.35v6.29h0V52a.35.35,0,0,0,.35.35h1.82a.35.35,0,0,0,.35-.35V43.69h0a4.22,4.22,0,1,1,8.44,0h0V52a.35.35,0,0,0,.35.35h1.82a.35.35,0,0,0,.35-.35V43.69h0A6.75,6.75,0,0,0,130.85,36.94Z"/><path class="cls-1" d="M178.68,52.46a7.71,7.71,0,0,0,7-4.47c.07-.2,0-.21-.21-.21h-2.3c-.37,0-.46.15-.46.15a5.09,5.09,0,0,1-4,2,5.15,5.15,0,0,1-5-3.87h12.05a.64.64,0,0,0,.61-.67c0-.2,0-.41,0-.62a7.7,7.7,0,1,0-7.7,7.71Zm-5-9a5.15,5.15,0,0,1,10,0h-10Z"/><rect class="cls-1" x="66.6" y="31.45" width="2.52" height="20.9" rx="0.35"/><rect class="cls-1" x="72.53" y="31.45" width="2.52" height="20.9" rx="0.35"/><path class="cls-1" d="M92,37.4a.35.35,0,0,0-.35-.35H89.78a.35.35,0,0,0-.35.35v8.32a4.22,4.22,0,0,1-8.44,0V37.4a.35.35,0,0,0-.35-.35H78.82a.35.35,0,0,0-.35.35v8.32a6.75,6.75,0,0,0,13.49,0Z"/><path class="cls-1" d="M155.37,52V37.4a.34.34,0,0,0-.35-.35H153.2a.35.35,0,0,0-.35.35v1.66a7.71,7.71,0,1,0,0,11.39V52a.35.35,0,0,0,.35.35H155A.35.35,0,0,0,155.37,52Zm-7.7-2.09a5.16,5.16,0,1,1,5.15-5.16A5.16,5.16,0,0,1,147.67,49.91Z"/><path class="cls-1" d="M158.22,39.57h4.66V52a.35.35,0,0,0,.35.35h1.82a.35.35,0,0,0,.35-.35V39.57h4.67a.35.35,0,0,0,.35-.35V37.4a.35.35,0,0,0-.35-.35H165.4V31.8a.35.35,0,0,0-.35-.35h-1.82a.35.35,0,0,0-.35.35v5.25h-4.66a.34.34,0,0,0-.35.35v1.82A.35.35,0,0,0,158.22,39.57Z"/><rect class="cls-1" x="60.66" y="37.05" width="2.52" height="15.3" rx="0.35"/><path class="cls-1" d="M61.92,35.18a1.87,1.87,0,1,0-1.87-1.86A1.87,1.87,0,0,0,61.92,35.18Z"/><rect class="cls-1" x="118.16" y="37.05" width="2.52" height="15.3" rx="0.35"/><path class="cls-1" d="M119.42,31.45a1.87,1.87,0,1,0,1.87,1.87A1.87,1.87,0,0,0,119.42,31.45Z"/><path class="cls-1" d="M109.27,39.25a2.83,2.83,0,0,1,3,2.7V52a.35.35,0,0,0,.35.35h1.82a.35.35,0,0,0,.35-.35V42a5.25,5.25,0,0,0-5.47-5,5.65,5.65,0,0,0-4.21,1.81A5.65,5.65,0,0,0,100.85,37a5.79,5.79,0,0,0-2.94.79V37.4a.35.35,0,0,0-.35-.35H95.73a.35.35,0,0,0-.35.35V52a.35.35,0,0,0,.35.35h1.83a.35.35,0,0,0,.35-.35V41.89a3,3,0,0,1,5.89.06V52a.35.35,0,0,0,.35.35H106a.35.35,0,0,0,.35-.35V42A2.82,2.82,0,0,1,109.27,39.25Z"/><path class="cls-1" d="M10.1,62.36a33.19,33.19,0,0,1-4-11.1,33.24,33.24,0,0,1,.33-11.85A53.32,53.32,0,0,1,9.82,28.87c-.73.66-1.45,1.33-2.14,2A30.92,30.92,0,0,0,2.5,37.77a20.4,20.4,0,0,0-2.44,8A19.58,19.58,0,0,0,1.3,54.16a29,29,0,0,0,4.23,7.57,45.85,45.85,0,0,0,6,6.47,58.4,58.4,0,0,0,7.07,5.43c.63.42,1.28.83,1.93,1.22-1.14-1-2.26-2.1-3.33-3.21A48.37,48.37,0,0,1,10.1,62.36Z"/><path class="cls-1" d="M36.38,62.08,39.25,59a50.74,50.74,0,0,0,5.15-6.47,23.57,23.57,0,0,0,3.2-7.36,20.29,20.29,0,0,0,.2-7.92,36,36,0,0,0-4.6-12c-.08.32-.17.65-.27,1a22.51,22.51,0,0,1-1.72,4.19,30.16,30.16,0,0,1-5.34,7.13c-2,2.05-4.14,4-6.07,6A37.89,37.89,0,0,0,24.69,50a20.74,20.74,0,0,0-2.81,7.64,23.29,23.29,0,0,0,.28,8.23,39.21,39.21,0,0,0,2.63,8,72.64,72.64,0,0,0,4,7.56,28,28,0,0,1,1.06-8.41,25.54,25.54,0,0,1,3.77-7.7A32.88,32.88,0,0,1,36.38,62.08Z"/><path class="cls-1" d="M52,47.72c0-.53-.07-1-.13-1.58A24.24,24.24,0,0,1,48,54a47.52,47.52,0,0,1-5.75,6.4l-3.08,2.89a35.29,35.29,0,0,0-2.92,3A25.23,25.23,0,0,0,32,73.3a20.26,20.26,0,0,0-1.37,5.46,12.45,12.45,0,0,1,2.75-5,37.15,37.15,0,0,1,4.59-4.37c.82-.67,1.65-1.31,2.49-1.93s1.69-1.24,2.47-1.87a29.81,29.81,0,0,0,4.32-4.23,23.37,23.37,0,0,0,3.14-5,18.6,18.6,0,0,0,1.53-5.64A20.45,20.45,0,0,0,52,47.72Z"/><path class="cls-2" d="M21.79,46.9c8.84-14.57,29-22.44,2.48-46.9,0,0,1.77,7.19-2.89,17.55C17,27.37-4.26,51,25.77,78.47,25.77,78.47,13,61.46,21.79,46.9Z"/></g></g></svg>