<svg width="527" height="22" viewBox="0 0 527 22" fill="none" xmlns="http://www.w3.org/2000/svg">
<line x1="430.5" y1="2.18557e-08" x2="430.5" y2="22" stroke="#343434"/>
<path d="M454.692 5.528C452.662 5.528 451.29 6.718 451.29 8.524C451.29 10.064 452.06 10.89 454.566 11.436C456.302 11.8 456.974 12.29 456.974 13.186C456.974 14.292 456.064 14.88 454.776 14.88C453.656 14.88 452.494 14.404 451.766 13.676L450.968 14.866C451.934 15.706 453.208 16.182 454.734 16.182C456.988 16.182 458.402 14.908 458.402 13.046C458.402 11.464 457.478 10.652 454.972 10.106C453.236 9.742 452.718 9.35 452.718 8.44C452.718 7.334 453.558 6.83 454.678 6.83C455.756 6.83 456.722 7.292 457.422 7.838L458.108 6.62C457.226 5.99 456.078 5.528 454.692 5.528ZM460.541 5.808C460.023 5.808 459.645 6.2 459.645 6.704C459.645 7.222 460.023 7.6 460.541 7.6C461.045 7.6 461.437 7.222 461.437 6.704C461.437 6.2 461.045 5.808 460.541 5.808ZM461.227 8.972H459.855V16H461.227V8.972ZM465.949 8.832C464.017 8.832 462.701 10.372 462.701 12.486C462.701 14.6 464.017 16.14 465.949 16.14C466.999 16.14 467.713 15.734 468.133 15.244V15.846C468.133 17.232 467.293 18.142 465.949 18.142C464.927 18.142 464.199 17.666 463.639 16.994L462.729 17.89C463.471 18.772 464.507 19.36 465.963 19.36C468.105 19.36 469.505 18.016 469.505 15.818V8.972H468.259L468.203 9.826C467.797 9.294 467.055 8.832 465.949 8.832ZM466.201 10.05C467.139 10.05 467.713 10.554 468.133 11.24V13.732C467.713 14.418 467.139 14.922 466.201 14.922C464.969 14.922 464.087 13.942 464.087 12.486C464.087 11.03 464.969 10.05 466.201 10.05ZM474.99 8.832C473.912 8.832 473.17 9.308 472.764 9.826L472.708 8.972H471.462V16H472.834V11.254C473.268 10.638 473.828 10.134 474.654 10.134C475.648 10.134 476.278 10.862 476.278 11.926V16H477.65V11.842C477.65 10.036 476.684 8.832 474.99 8.832ZM490.719 5.71H489.291V12.29C489.291 13.844 488.409 14.866 486.799 14.866C485.161 14.866 484.293 13.844 484.293 12.29V5.71H482.865V12.374C482.865 14.684 484.237 16.182 486.799 16.182C489.347 16.182 490.719 14.684 490.719 12.374V5.71ZM496.265 8.832C495.159 8.832 494.417 9.294 494.011 9.826L493.955 8.972H492.709V19.22H494.081V15.244C494.501 15.734 495.215 16.14 496.265 16.14C498.197 16.14 499.513 14.6 499.513 12.486C499.513 10.372 498.197 8.832 496.265 8.832ZM496.013 10.05C497.245 10.05 498.127 11.03 498.127 12.486C498.127 13.942 497.245 14.922 496.013 14.922C495.075 14.922 494.501 14.418 494.081 13.732V11.24C494.501 10.554 495.075 10.05 496.013 10.05Z" fill="#343434"/>
<mask id="path-3-inside-1_2953_39151" fill="white">
<path fill-rule="evenodd" clip-rule="evenodd" d="M510.029 10C510.029 5.58516 513.608 2 518.023 2C522.438 2 526.017 5.58516 526.017 10C526.017 12.4236 524.938 14.5972 523.235 16.0648C522.816 14.6224 521.323 13.5556 519.546 13.5556H516.5C514.723 13.5556 513.23 14.6224 512.811 16.0647C511.108 14.597 510.029 12.4235 510.029 10ZM518.023 10.8889C516.551 10.8889 515.358 9.69498 515.358 8.22222C515.358 6.74946 516.551 5.55556 518.023 5.55556C519.495 5.55556 520.688 6.74946 520.688 8.22222C520.688 9.69498 519.495 10.8889 518.023 10.8889Z"/>
</mask>
<path d="M523.235 16.0648L522.275 16.3437L522.709 17.8383L523.888 16.8224L523.235 16.0648ZM512.811 16.0647L512.158 16.8222L513.337 17.8381L513.771 16.3436L512.811 16.0647ZM518.023 1C513.055 1 509.029 5.03389 509.029 10H511.029C511.029 6.13643 514.162 3 518.023 3V1ZM527.017 10C527.017 5.03389 522.991 1 518.023 1V3C521.885 3 525.017 6.13643 525.017 10H527.017ZM523.888 16.8224C525.802 15.1729 527.017 12.7269 527.017 10H525.017C525.017 12.1203 524.074 14.0214 522.582 15.3073L523.888 16.8224ZM519.546 14.5556C520.947 14.5556 521.998 15.391 522.275 16.3437L524.195 15.7859C523.634 13.8539 521.699 12.5556 519.546 12.5556V14.5556ZM516.5 14.5556H519.546V12.5556H516.5V14.5556ZM513.771 16.3436C514.048 15.3909 515.099 14.5556 516.5 14.5556V12.5556C514.347 12.5556 512.412 13.8538 511.851 15.7857L513.771 16.3436ZM509.029 10C509.029 12.7268 510.244 15.1727 512.158 16.8222L513.464 15.3071C511.972 14.0213 511.029 12.1203 511.029 10H509.029ZM514.358 8.22222C514.358 10.2465 515.998 11.8889 518.023 11.8889V9.88889C517.104 9.88889 516.358 9.14342 516.358 8.22222H514.358ZM518.023 4.55556C515.998 4.55556 514.358 6.19791 514.358 8.22222H516.358C516.358 7.30102 517.104 6.55556 518.023 6.55556V4.55556ZM521.688 8.22222C521.688 6.19791 520.048 4.55556 518.023 4.55556V6.55556C518.942 6.55556 519.688 7.30102 519.688 8.22222H521.688ZM518.023 11.8889C520.048 11.8889 521.688 10.2465 521.688 8.22222H519.688C519.688 9.14342 518.942 9.88889 518.023 9.88889V11.8889Z" fill="#343434" mask="url(#path-3-inside-1_2953_39151)"/>
<rect x="510.5" y="2.56055" width="15" height="15" rx="7.5" stroke="#343434"/>
<path d="M6.376 5.032H6.312V17H7.944V9.096L15.288 17.208H15.352V5.24H13.72V13.128L6.376 5.032ZM21.0563 8.808C18.8003 8.808 17.2163 10.584 17.2163 13C17.2163 15.416 18.7843 17.16 21.2643 17.16C22.7203 17.16 23.7603 16.6 24.5283 15.656L23.4883 14.792C23.0883 15.352 22.3203 15.8 21.2643 15.8C19.7603 15.8 18.8963 14.984 18.8003 13.544H24.6883V12.92C24.6883 10.664 23.4563 8.808 21.0563 8.808ZM21.0563 10.152C22.3523 10.152 23.0883 11 23.1363 12.264H18.8003C18.8803 10.984 19.7603 10.152 21.0563 10.152ZM36.8739 8.968H35.2739L33.1939 13.848L30.9699 8.968H30.9059L28.6659 13.848L26.6019 8.968H24.9859L28.5539 17.16H28.6179L30.9379 12.392L33.2419 17.16H33.3059L36.8739 8.968Z" fill="#343434"/>
<path d="M54.9814 14.2471L60.1249 9.11328H49.8379L54.9814 14.2471Z" fill="#343434"/>
<mask id="mask0_2953_39151" style="mask-type:alpha" maskUnits="userSpaceOnUse" x="49" y="9" width="12" height="6">
<path d="M54.9814 14.2471L60.1249 9.11328H49.8379L54.9814 14.2471Z" fill="white"/>
</mask>
<g mask="url(#mask0_2953_39151)">
<rect x="47" y="3" width="16" height="16" fill="#343434"/>
</g>
<path d="M105.128 5.24H103.496V12.76C103.496 14.536 102.488 15.704 100.648 15.704C98.776 15.704 97.784 14.536 97.784 12.76V5.24H96.152V12.856C96.152 15.496 97.72 17.208 100.648 17.208C103.56 17.208 105.128 15.496 105.128 12.856V5.24ZM110.073 8.808C108.201 8.808 107.033 9.72 107.033 11.256C107.033 12.504 107.833 13.16 109.769 13.608C110.937 13.88 111.417 14.136 111.417 14.792C111.417 15.48 110.761 15.8 109.801 15.8C108.841 15.8 108.057 15.48 107.449 14.968L106.729 16.232C107.481 16.824 108.569 17.16 109.785 17.16C111.753 17.16 113.001 16.168 113.001 14.632C113.001 13.432 112.153 12.664 110.233 12.2C109.065 11.928 108.601 11.736 108.601 11.096C108.601 10.44 109.177 10.168 110.009 10.168C110.937 10.168 111.673 10.488 112.185 10.84L112.841 9.592C112.201 9.144 111.145 8.808 110.073 8.808ZM118.088 8.808C115.832 8.808 114.248 10.584 114.248 13C114.248 15.416 115.816 17.16 118.296 17.16C119.752 17.16 120.792 16.6 121.56 15.656L120.52 14.792C120.12 15.352 119.352 15.8 118.296 15.8C116.792 15.8 115.928 14.984 115.832 13.544H121.72V12.92C121.72 10.664 120.488 8.808 118.088 8.808ZM118.088 10.152C119.384 10.152 120.12 11 120.168 12.264H115.832C115.912 10.984 116.792 10.152 118.088 10.152ZM130.711 4.84H129.143V9.832C128.663 9.272 127.847 8.808 126.647 8.808C124.439 8.808 122.935 10.568 122.935 12.984C122.935 15.4 124.439 17.16 126.647 17.16C127.911 17.16 128.759 16.632 129.223 16.024L129.287 17H130.711V4.84ZM126.935 10.2C128.007 10.2 128.663 10.776 129.143 11.56V14.408C128.663 15.192 128.007 15.768 126.935 15.768C125.527 15.768 124.519 14.648 124.519 12.984C124.519 11.32 125.527 10.2 126.935 10.2Z" fill="#343434"/>
<path d="M149.981 14.2471L155.125 9.11328H144.838L149.981 14.2471Z" fill="#343434"/>
<mask id="mask1_2953_39151" style="mask-type:alpha" maskUnits="userSpaceOnUse" x="144" y="9" width="12" height="6">
<path d="M149.981 14.2471L155.125 9.11328H144.838L149.981 14.2471Z" fill="white"/>
</mask>
<g mask="url(#mask1_2953_39151)">
<rect x="142" y="3" width="16" height="16" fill="#343434"/>
</g>
<path d="M198.888 17L195.944 12.248C197.384 11.752 198.328 10.6 198.328 8.888C198.328 6.536 196.52 5.24 194.184 5.24H190.28V17H191.912V12.536H194.184H194.216L196.968 17H198.888ZM191.912 6.68H194.04C195.624 6.68 196.68 7.448 196.68 8.888C196.68 10.344 195.64 11.096 194.04 11.096H191.912V6.68ZM203.353 8.808C201.097 8.808 199.513 10.584 199.513 13C199.513 15.416 201.081 17.16 203.561 17.16C205.017 17.16 206.057 16.6 206.825 15.656L205.785 14.792C205.385 15.352 204.617 15.8 203.561 15.8C202.057 15.8 201.193 14.984 201.097 13.544H206.985V12.92C206.985 10.664 205.753 8.808 203.353 8.808ZM203.353 10.152C204.649 10.152 205.385 11 205.433 12.264H201.097C201.177 10.984 202.057 10.152 203.353 10.152ZM211.308 8.808C209.436 8.808 208.268 9.72 208.268 11.256C208.268 12.504 209.068 13.16 211.004 13.608C212.172 13.88 212.652 14.136 212.652 14.792C212.652 15.48 211.996 15.8 211.036 15.8C210.076 15.8 209.292 15.48 208.684 14.968L207.964 16.232C208.716 16.824 209.804 17.16 211.02 17.16C212.988 17.16 214.236 16.168 214.236 14.632C214.236 13.432 213.388 12.664 211.468 12.2C210.3 11.928 209.836 11.736 209.836 11.096C209.836 10.44 210.412 10.168 211.244 10.168C212.172 10.168 212.908 10.488 213.42 10.84L214.076 9.592C213.436 9.144 212.38 8.808 211.308 8.808ZM219.322 8.808C217.066 8.808 215.482 10.584 215.482 13C215.482 15.416 217.05 17.16 219.53 17.16C220.986 17.16 222.026 16.6 222.794 15.656L221.754 14.792C221.354 15.352 220.586 15.8 219.53 15.8C218.026 15.8 217.162 14.984 217.066 13.544H222.954V12.92C222.954 10.664 221.722 8.808 219.322 8.808ZM219.322 10.152C220.618 10.152 221.354 11 221.402 12.264H217.066C217.146 10.984 218.026 10.152 219.322 10.152ZM227.817 8.808C225.625 8.808 224.169 10.568 224.169 12.984C224.169 15.4 225.625 17.16 227.817 17.16C229.065 17.16 229.865 16.632 230.329 16.024L230.393 17H231.817V8.968H230.393L230.329 9.944C229.865 9.336 229.065 8.808 227.817 8.808ZM228.105 10.2C229.161 10.2 229.769 10.776 230.249 11.56V14.408C229.769 15.192 229.161 15.768 228.105 15.768C226.713 15.768 225.753 14.648 225.753 12.984C225.753 11.32 226.713 10.2 228.105 10.2ZM237.946 8.808C236.762 8.808 235.962 9.416 235.562 10.056L235.482 8.968H234.058V17H235.626V11.72C236.17 10.936 236.81 10.376 237.802 10.376H237.946V8.808ZM242.78 8.808C240.316 8.808 238.732 10.568 238.732 12.984C238.732 15.4 240.316 17.16 242.78 17.16C244.236 17.16 245.292 16.488 246.012 15.4L244.908 14.552C244.492 15.192 243.788 15.784 242.78 15.784C241.196 15.784 240.316 14.568 240.316 12.984C240.316 11.4 241.196 10.184 242.78 10.184C243.788 10.184 244.46 10.776 244.876 11.416L245.98 10.568C245.26 9.48 244.236 8.808 242.78 8.808ZM249.033 4.84H247.465V17H249.033V11.576C249.529 10.872 250.169 10.296 251.113 10.296C252.249 10.296 252.969 11.128 252.969 12.344V17H254.536V12.248C254.536 10.184 253.433 8.808 251.497 8.808C250.281 8.808 249.593 9.24 249.033 9.848V4.84Z" fill="#343434"/>
<path d="M273.981 14.2471L279.125 9.11328H268.838L273.981 14.2471Z" fill="#343434"/>
<mask id="mask2_2953_39151" style="mask-type:alpha" maskUnits="userSpaceOnUse" x="268" y="9" width="12" height="6">
<path d="M273.981 14.2471L279.125 9.11328H268.838L273.981 14.2471Z" fill="white"/>
</mask>
<g mask="url(#mask2_2953_39151)">
<rect x="266" y="3" width="16" height="16" fill="#343434"/>
</g>
<path d="M319.704 5.032C317.384 5.032 315.816 6.392 315.816 8.456C315.816 10.216 316.696 11.16 319.56 11.784C321.544 12.2 322.312 12.76 322.312 13.784C322.312 15.048 321.272 15.72 319.8 15.72C318.52 15.72 317.192 15.176 316.36 14.344L315.448 15.704C316.552 16.664 318.008 17.208 319.752 17.208C322.328 17.208 323.944 15.752 323.944 13.624C323.944 11.816 322.888 10.888 320.024 10.264C318.04 9.848 317.448 9.4 317.448 8.36C317.448 7.096 318.408 6.52 319.688 6.52C320.92 6.52 322.024 7.048 322.824 7.672L323.608 6.28C322.6 5.56 321.288 5.032 319.704 5.032ZM329.088 8.808C326.832 8.808 325.248 10.584 325.248 13C325.248 15.416 326.816 17.16 329.296 17.16C330.752 17.16 331.792 16.6 332.56 15.656L331.52 14.792C331.12 15.352 330.352 15.8 329.296 15.8C327.792 15.8 326.928 14.984 326.832 13.544H332.72V12.92C332.72 10.664 331.488 8.808 329.088 8.808ZM329.088 10.152C330.384 10.152 331.12 11 331.168 12.264H326.832C326.912 10.984 327.792 10.152 329.088 10.152ZM335.954 4.84H334.386V17H335.954V4.84ZM339.829 4.84H338.261V17H339.829V4.84ZM349.438 8.808C347.054 8.808 345.326 10.584 345.326 13C345.326 15.416 347.054 17.16 349.438 17.16C351.822 17.16 353.566 15.416 353.566 13C353.566 10.584 351.822 8.808 349.438 8.808ZM349.438 10.2C350.91 10.2 351.982 11.384 351.982 13C351.982 14.6 350.91 15.768 349.438 15.768C347.966 15.768 346.91 14.6 346.91 13C346.91 11.384 347.966 10.2 349.438 10.2ZM359.133 8.808C357.949 8.808 357.149 9.416 356.749 10.056L356.669 8.968H355.245V17H356.813V11.72C357.357 10.936 357.997 10.376 358.989 10.376H359.133V8.808ZM373.221 5.24H363.349V6.696H367.461V17H369.093V6.696H373.221V5.24ZM376.633 8.808C375.449 8.808 374.649 9.416 374.249 10.056L374.169 8.968H372.745V17H374.313V11.72C374.857 10.936 375.497 10.376 376.489 10.376H376.633V8.808ZM381.067 8.808C378.875 8.808 377.419 10.568 377.419 12.984C377.419 15.4 378.875 17.16 381.067 17.16C382.315 17.16 383.115 16.632 383.579 16.024L383.643 17H385.067V8.968H383.643L383.579 9.944C383.115 9.336 382.315 8.808 381.067 8.808ZM381.355 10.2C382.411 10.2 383.019 10.776 383.499 11.56V14.408C383.019 15.192 382.411 15.768 381.355 15.768C379.963 15.768 379.003 14.648 379.003 12.984C379.003 11.32 379.963 10.2 381.355 10.2ZM394.524 4.84H392.956V9.832C392.476 9.272 391.66 8.808 390.46 8.808C388.252 8.808 386.748 10.568 386.748 12.984C386.748 15.4 388.252 17.16 390.46 17.16C391.724 17.16 392.572 16.632 393.036 16.024L393.1 17H394.524V4.84ZM390.748 10.2C391.82 10.2 392.476 10.776 392.956 11.56V14.408C392.476 15.192 391.82 15.768 390.748 15.768C389.34 15.768 388.332 14.648 388.332 12.984C388.332 11.32 389.34 10.2 390.748 10.2ZM400.041 8.808C397.785 8.808 396.201 10.584 396.201 13C396.201 15.416 397.769 17.16 400.249 17.16C401.705 17.16 402.745 16.6 403.513 15.656L402.473 14.792C402.073 15.352 401.305 15.8 400.249 15.8C398.745 15.8 397.881 14.984 397.785 13.544H403.673V12.92C403.673 10.664 402.441 8.808 400.041 8.808ZM400.041 10.152C401.337 10.152 402.073 11 402.121 12.264H397.785C397.865 10.984 398.745 10.152 400.041 10.152Z" fill="#343434"/>
</svg>
