<svg width="508" height="48" viewBox="0 0 508 48" fill="none" xmlns="http://www.w3.org/2000/svg">
<rect width="508" height="48" fill="white"/>
<line y1="47.5" x2="508" y2="47.5" stroke="#E5E5E5"/>
<path d="M20 48C20 45.2386 22.2386 43 25 43H77C79.7614 43 82 45.2386 82 48V48H20V48Z" fill="#00ADEE"/>
<path d="M26.1225 14.528C23.0845 14.528 20.8305 16.782 20.8305 19.876C20.8305 22.942 23.0845 25.182 26.1225 25.182C29.1465 25.182 31.4145 22.942 31.4145 19.876C31.4145 16.782 29.1465 14.528 26.1225 14.528ZM26.1225 16.488C27.9425 16.488 29.2305 17.888 29.2305 19.876C29.2305 21.822 27.9425 23.222 26.1225 23.222C24.2885 23.222 23.0005 21.822 23.0005 19.876C23.0005 17.888 24.2885 16.488 26.1225 16.488ZM39.7056 17.902H37.4376L35.7856 21.43L34.1336 17.902H31.8516L35.7576 25.14H35.8136L39.7056 17.902ZM43.2257 17.762C41.1117 17.762 39.6417 19.344 39.6417 21.472C39.6417 23.6 41.1257 25.14 43.3657 25.14C44.6817 25.14 45.6897 24.664 46.3897 23.768L45.0177 22.718C44.7097 23.124 44.1497 23.432 43.4217 23.432C42.4137 23.432 41.7837 22.914 41.7417 22.018H46.5297V21.36C46.5297 19.414 45.4517 17.762 43.2257 17.762ZM43.1557 19.316C43.9957 19.316 44.4577 19.918 44.4857 20.716H41.7417C41.7697 19.904 42.3297 19.316 43.1557 19.316ZM51.8456 17.762C50.8516 17.762 50.1516 18.252 49.8016 18.84L49.6756 17.902H47.8276V25H49.8996V20.758C50.3056 20.226 50.8376 19.82 51.6636 19.82H51.8456V17.762ZM59.9263 17.902H57.6583L56.0063 21.43L54.3543 17.902H52.0723L55.9783 25.14H56.0343L59.9263 17.902ZM61.7699 14.444C61.0699 14.444 60.5659 14.962 60.5659 15.662C60.5659 16.362 61.0699 16.88 61.7699 16.88C62.4699 16.88 62.9879 16.362 62.9879 15.662C62.9879 14.962 62.4699 14.444 61.7699 14.444ZM62.8059 17.902H60.7339V25H62.8059V17.902ZM67.6573 17.762C65.5433 17.762 64.0733 19.344 64.0733 21.472C64.0733 23.6 65.5573 25.14 67.7973 25.14C69.1133 25.14 70.1213 24.664 70.8213 23.768L69.4493 22.718C69.1413 23.124 68.5813 23.432 67.8533 23.432C66.8453 23.432 66.2153 22.914 66.1733 22.018H70.9613V21.36C70.9613 19.414 69.8833 17.762 67.6573 17.762ZM67.5873 19.316C68.4273 19.316 68.8893 19.918 68.9173 20.716H66.1733C66.2013 19.904 66.7613 19.316 67.5873 19.316ZM81.6485 17.902H79.3945L78.0225 21.332L76.3565 17.902H76.3005L74.6345 21.332L73.2765 17.902H71.0085L74.4105 25.14H74.4665L76.3285 21.654L78.1905 25.14H78.2465L81.6485 17.902Z" fill="#343434"/>
<rect x="189" y="47" width="85" height="1" fill="#E5E5E5"/>
<path d="M194.469 15.528C192.775 15.528 191.725 16.452 191.375 18.216L192.635 18.51C192.859 17.348 193.433 16.788 194.469 16.788C195.463 16.788 196.205 17.446 196.205 18.566C196.205 19.504 195.967 20.106 195.225 21.044L191.417 25.916V26H197.731V24.74H193.867L196.317 21.758C197.157 20.722 197.605 19.868 197.605 18.594C197.605 16.788 196.331 15.528 194.469 15.528ZM199.965 24.208C199.405 24.208 198.999 24.614 198.999 25.174C198.999 25.734 199.405 26.14 199.965 26.14C200.525 26.14 200.931 25.734 200.931 25.174C200.931 24.6 200.525 24.208 199.965 24.208ZM209.701 15.71H206.131V26H207.559V22.22H209.701C211.745 22.22 213.285 21.058 213.285 18.972C213.285 16.858 211.731 15.71 209.701 15.71ZM209.575 16.97C210.933 16.97 211.829 17.67 211.829 18.972C211.829 20.274 210.947 20.96 209.575 20.96H207.559V16.97H209.575ZM218.02 18.832C216.984 18.832 216.284 19.364 215.934 19.924L215.864 18.972H214.618V26H215.99V21.38C216.466 20.694 217.026 20.204 217.894 20.204H218.02V18.832ZM222.306 18.832C220.22 18.832 218.708 20.386 218.708 22.5C218.708 24.614 220.22 26.14 222.306 26.14C224.392 26.14 225.918 24.614 225.918 22.5C225.918 20.386 224.392 18.832 222.306 18.832ZM222.306 20.05C223.594 20.05 224.532 21.086 224.532 22.5C224.532 23.9 223.594 24.922 222.306 24.922C221.018 24.922 220.094 23.9 220.094 22.5C220.094 21.086 221.018 20.05 222.306 20.05ZM229.319 16.592H227.947V18.972H226.575V20.148H227.947V23.648C227.947 25.272 228.913 26.14 230.411 26.14C231.097 26.14 231.587 25.972 231.923 25.762L231.531 24.642C231.307 24.754 230.985 24.894 230.481 24.894C229.809 24.894 229.319 24.446 229.319 23.648V20.148H231.531V18.972H229.319V16.592ZM235.835 18.832C233.861 18.832 232.475 20.386 232.475 22.5C232.475 24.614 233.847 26.14 236.017 26.14C237.291 26.14 238.201 25.65 238.873 24.824L237.963 24.068C237.613 24.558 236.941 24.95 236.017 24.95C234.701 24.95 233.945 24.236 233.861 22.976H239.013V22.43C239.013 20.456 237.935 18.832 235.835 18.832ZM235.835 20.008C236.969 20.008 237.613 20.75 237.655 21.856H233.861C233.931 20.736 234.701 20.008 235.835 20.008ZM243.619 18.832C241.463 18.832 240.077 20.372 240.077 22.486C240.077 24.6 241.463 26.14 243.619 26.14C244.893 26.14 245.817 25.552 246.447 24.6L245.481 23.858C245.117 24.418 244.501 24.936 243.619 24.936C242.233 24.936 241.463 23.872 241.463 22.486C241.463 21.1 242.233 20.036 243.619 20.036C244.501 20.036 245.089 20.554 245.453 21.114L246.419 20.372C245.789 19.42 244.893 18.832 243.619 18.832ZM249.622 16.592H248.25V18.972H246.878V20.148H248.25V23.648C248.25 25.272 249.216 26.14 250.714 26.14C251.4 26.14 251.89 25.972 252.226 25.762L251.834 24.642C251.61 24.754 251.288 24.894 250.784 24.894C250.112 24.894 249.622 24.446 249.622 23.648V20.148H251.834V18.972H249.622V16.592ZM254.091 15.808C253.573 15.808 253.195 16.2 253.195 16.704C253.195 17.222 253.573 17.6 254.091 17.6C254.595 17.6 254.987 17.222 254.987 16.704C254.987 16.2 254.595 15.808 254.091 15.808ZM254.777 18.972H253.405V26H254.777V18.972ZM259.849 18.832C257.763 18.832 256.251 20.386 256.251 22.5C256.251 24.614 257.763 26.14 259.849 26.14C261.935 26.14 263.461 24.614 263.461 22.5C263.461 20.386 261.935 18.832 259.849 18.832ZM259.849 20.05C261.137 20.05 262.075 21.086 262.075 22.5C262.075 23.9 261.137 24.922 259.849 24.922C258.561 24.922 257.637 23.9 257.637 22.5C257.637 21.086 258.561 20.05 259.849 20.05ZM268.458 18.832C267.38 18.832 266.638 19.308 266.232 19.826L266.176 18.972H264.93V26H266.302V21.254C266.736 20.638 267.296 20.134 268.122 20.134C269.116 20.134 269.746 20.862 269.746 21.926V26H271.118V21.842C271.118 20.036 270.152 18.832 268.458 18.832Z" fill="#343434"/>
<rect x="102" y="47" width="67" height="1" fill="#E5E5E5"/>
<path d="M113.199 15.528H113.143L108.817 18.188L109.475 19.378L111.813 18.034V24.726H109.783V26H115.131V24.726H113.199V15.528ZM117.94 24.208C117.38 24.208 116.974 24.614 116.974 25.174C116.974 25.734 117.38 26.14 117.94 26.14C118.5 26.14 118.906 25.734 118.906 25.174C118.906 24.6 118.5 24.208 117.94 24.208ZM129.034 15.71H125.464V26H126.892V22.22H129.034C131.078 22.22 132.618 21.058 132.618 18.972C132.618 16.858 131.064 15.71 129.034 15.71ZM128.908 16.97C130.266 16.97 131.162 17.67 131.162 18.972C131.162 20.274 130.28 20.96 128.908 20.96H126.892V16.97H128.908ZM137.353 18.832C136.317 18.832 135.617 19.364 135.267 19.924L135.197 18.972H133.951V26H135.323V21.38C135.799 20.694 136.359 20.204 137.227 20.204H137.353V18.832ZM139.217 15.808C138.699 15.808 138.321 16.2 138.321 16.704C138.321 17.222 138.699 17.6 139.217 17.6C139.721 17.6 140.113 17.222 140.113 16.704C140.113 16.2 139.721 15.808 139.217 15.808ZM139.903 18.972H138.531V26H139.903V18.972ZM144.919 18.832C142.763 18.832 141.377 20.372 141.377 22.486C141.377 24.6 142.763 26.14 144.919 26.14C146.193 26.14 147.117 25.552 147.747 24.6L146.781 23.858C146.417 24.418 145.801 24.936 144.919 24.936C143.533 24.936 142.763 23.872 142.763 22.486C142.763 21.1 143.533 20.036 144.919 20.036C145.801 20.036 146.389 20.554 146.753 21.114L147.719 20.372C147.089 19.42 146.193 18.832 144.919 18.832ZM149.676 15.808C149.158 15.808 148.78 16.2 148.78 16.704C148.78 17.222 149.158 17.6 149.676 17.6C150.18 17.6 150.572 17.222 150.572 16.704C150.572 16.2 150.18 15.808 149.676 15.808ZM150.362 18.972H148.99V26H150.362V18.972ZM155.854 18.832C154.776 18.832 154.034 19.308 153.628 19.826L153.572 18.972H152.326V26H153.698V21.254C154.132 20.638 154.692 20.134 155.518 20.134C156.512 20.134 157.142 20.862 157.142 21.926V26H158.514V21.842C158.514 20.036 157.548 18.832 155.854 18.832ZM163.15 18.832C161.218 18.832 159.902 20.372 159.902 22.486C159.902 24.6 161.218 26.14 163.15 26.14C164.2 26.14 164.914 25.734 165.334 25.244V25.846C165.334 27.232 164.494 28.142 163.15 28.142C162.128 28.142 161.4 27.666 160.84 26.994L159.93 27.89C160.672 28.772 161.708 29.36 163.164 29.36C165.306 29.36 166.706 28.016 166.706 25.818V18.972H165.46L165.404 19.826C164.998 19.294 164.256 18.832 163.15 18.832ZM163.402 20.05C164.34 20.05 164.914 20.554 165.334 21.24V23.732C164.914 24.418 164.34 24.922 163.402 24.922C162.17 24.922 161.288 23.942 161.288 22.486C161.288 21.03 162.17 20.05 163.402 20.05Z" fill="#343434"/>
<rect x="294" y="47" width="93" height="1" fill="#E5E5E5"/>
<path d="M300.091 15.528C298.467 15.528 297.501 16.438 297.039 17.74L298.257 18.258C298.551 17.334 299.139 16.788 300.077 16.788C301.029 16.788 301.729 17.418 301.729 18.44C301.729 19.504 300.931 20.036 300.077 20.036H298.929V21.254H300.049C301.225 21.254 302.051 22.024 302.051 23.06C302.051 24.194 301.295 24.922 300.203 24.922C299.027 24.922 298.453 24.292 298.131 23.298L296.871 23.634C297.375 25.244 298.383 26.182 300.203 26.182C302.163 26.182 303.437 24.922 303.437 23.06C303.437 21.87 302.765 21.03 301.729 20.638C302.527 20.274 303.115 19.602 303.115 18.454C303.115 16.746 301.883 15.528 300.091 15.528ZM305.444 24.208C304.884 24.208 304.478 24.614 304.478 25.174C304.478 25.734 304.884 26.14 305.444 26.14C306.004 26.14 306.41 25.734 306.41 25.174C306.41 24.6 306.004 24.208 305.444 24.208ZM315.377 15.528H315.321L310.589 26H312.115L313.039 23.9H317.659L318.583 26H320.109L315.377 15.528ZM315.349 18.678L317.127 22.654H313.571L315.349 18.678ZM324.079 18.832C321.923 18.832 320.537 20.372 320.537 22.486C320.537 24.6 321.923 26.14 324.079 26.14C325.353 26.14 326.277 25.552 326.907 24.6L325.941 23.858C325.577 24.418 324.961 24.936 324.079 24.936C322.693 24.936 321.923 23.872 321.923 22.486C321.923 21.1 322.693 20.036 324.079 20.036C324.961 20.036 325.549 20.554 325.913 21.114L326.879 20.372C326.249 19.42 325.353 18.832 324.079 18.832ZM331.202 18.832C329.046 18.832 327.66 20.372 327.66 22.486C327.66 24.6 329.046 26.14 331.202 26.14C332.476 26.14 333.4 25.552 334.03 24.6L333.064 23.858C332.7 24.418 332.084 24.936 331.202 24.936C329.816 24.936 329.046 23.872 329.046 22.486C329.046 21.1 329.816 20.036 331.202 20.036C332.084 20.036 332.672 20.554 333.036 21.114L334.002 20.372C333.372 19.42 332.476 18.832 331.202 18.832ZM338.143 18.832C336.169 18.832 334.783 20.386 334.783 22.5C334.783 24.614 336.155 26.14 338.325 26.14C339.599 26.14 340.509 25.65 341.181 24.824L340.271 24.068C339.921 24.558 339.249 24.95 338.325 24.95C337.009 24.95 336.253 24.236 336.169 22.976H341.321V22.43C341.321 20.456 340.243 18.832 338.143 18.832ZM338.143 20.008C339.277 20.008 339.921 20.75 339.963 21.856H336.169C336.239 20.736 337.009 20.008 338.143 20.008ZM345.103 18.832C343.465 18.832 342.443 19.63 342.443 20.974C342.443 22.066 343.143 22.64 344.837 23.032C345.859 23.27 346.279 23.494 346.279 24.068C346.279 24.67 345.705 24.95 344.865 24.95C344.025 24.95 343.339 24.67 342.807 24.222L342.177 25.328C342.835 25.846 343.787 26.14 344.851 26.14C346.573 26.14 347.665 25.272 347.665 23.928C347.665 22.878 346.923 22.206 345.243 21.8C344.221 21.562 343.815 21.394 343.815 20.834C343.815 20.26 344.319 20.022 345.047 20.022C345.859 20.022 346.503 20.302 346.951 20.61L347.525 19.518C346.965 19.126 346.041 18.832 345.103 18.832ZM351.474 18.832C349.836 18.832 348.814 19.63 348.814 20.974C348.814 22.066 349.514 22.64 351.208 23.032C352.23 23.27 352.65 23.494 352.65 24.068C352.65 24.67 352.076 24.95 351.236 24.95C350.396 24.95 349.71 24.67 349.178 24.222L348.548 25.328C349.206 25.846 350.158 26.14 351.222 26.14C352.944 26.14 354.036 25.272 354.036 23.928C354.036 22.878 353.294 22.206 351.614 21.8C350.592 21.562 350.186 21.394 350.186 20.834C350.186 20.26 350.69 20.022 351.418 20.022C352.23 20.022 352.874 20.302 353.322 20.61L353.896 19.518C353.336 19.126 352.412 18.832 351.474 18.832ZM358.725 18.832C356.639 18.832 355.127 20.386 355.127 22.5C355.127 24.614 356.639 26.14 358.725 26.14C360.811 26.14 362.337 24.614 362.337 22.5C362.337 20.386 360.811 18.832 358.725 18.832ZM358.725 20.05C360.013 20.05 360.951 21.086 360.951 22.5C360.951 23.9 360.013 24.922 358.725 24.922C357.437 24.922 356.513 23.9 356.513 22.5C356.513 21.086 357.437 20.05 358.725 20.05ZM367.208 18.832C366.172 18.832 365.472 19.364 365.122 19.924L365.052 18.972H363.806V26H365.178V21.38C365.654 20.694 366.214 20.204 367.082 20.204H367.208V18.832ZM369.072 15.808C368.554 15.808 368.176 16.2 368.176 16.704C368.176 17.222 368.554 17.6 369.072 17.6C369.576 17.6 369.968 17.222 369.968 16.704C369.968 16.2 369.576 15.808 369.072 15.808ZM369.758 18.972H368.386V26H369.758V18.972ZM374.592 18.832C372.618 18.832 371.232 20.386 371.232 22.5C371.232 24.614 372.604 26.14 374.774 26.14C376.048 26.14 376.958 25.65 377.63 24.824L376.72 24.068C376.37 24.558 375.698 24.95 374.774 24.95C373.458 24.95 372.702 24.236 372.618 22.976H377.77V22.43C377.77 20.456 376.692 18.832 374.592 18.832ZM374.592 20.008C375.726 20.008 376.37 20.75 376.412 21.856H372.618C372.688 20.736 373.458 20.008 374.592 20.008ZM381.552 18.832C379.914 18.832 378.892 19.63 378.892 20.974C378.892 22.066 379.592 22.64 381.286 23.032C382.308 23.27 382.728 23.494 382.728 24.068C382.728 24.67 382.154 24.95 381.314 24.95C380.474 24.95 379.788 24.67 379.256 24.222L378.626 25.328C379.284 25.846 380.236 26.14 381.3 26.14C383.022 26.14 384.114 25.272 384.114 23.928C384.114 22.878 383.372 22.206 381.692 21.8C380.67 21.562 380.264 21.394 380.264 20.834C380.264 20.26 380.768 20.022 381.496 20.022C382.308 20.022 382.952 20.302 383.4 20.61L383.974 19.518C383.414 19.126 382.49 18.832 381.552 18.832Z" fill="#343434"/>
<rect x="408" y="47" width="79" height="1" fill="#E5E5E5"/>
<path d="M415.494 15.626H415.424L409.474 24.012V24.068H414.108V26H415.494V24.068H416.88V22.808H415.494V15.626ZM414.122 19.602V22.822H411.84L414.122 19.602ZM418.877 24.208C418.317 24.208 417.911 24.614 417.911 25.174C417.911 25.734 418.317 26.14 418.877 26.14C419.437 26.14 419.843 25.734 419.843 25.174C419.843 24.6 419.437 24.208 418.877 24.208ZM428.012 15.528C425.982 15.528 424.61 16.718 424.61 18.524C424.61 20.064 425.38 20.89 427.886 21.436C429.622 21.8 430.294 22.29 430.294 23.186C430.294 24.292 429.384 24.88 428.096 24.88C426.976 24.88 425.814 24.404 425.086 23.676L424.288 24.866C425.254 25.706 426.528 26.182 428.054 26.182C430.308 26.182 431.722 24.908 431.722 23.046C431.722 21.464 430.798 20.652 428.292 20.106C426.556 19.742 426.038 19.35 426.038 18.44C426.038 17.334 426.878 16.83 427.998 16.83C429.076 16.83 430.042 17.292 430.742 17.838L431.428 16.62C430.546 15.99 429.398 15.528 428.012 15.528ZM439.235 18.972H437.863V23.718C437.429 24.32 436.911 24.838 436.029 24.838C435.105 24.838 434.545 24.124 434.545 23.088V18.972H433.173V23.158C433.173 24.95 434.069 26.14 435.679 26.14C436.813 26.14 437.513 25.678 437.933 25.146L437.989 26H439.235V18.972ZM449.39 18.832C448.228 18.832 447.402 19.364 446.87 20.12C446.464 19.308 445.722 18.832 444.7 18.832C443.636 18.832 442.908 19.308 442.502 19.826L442.446 18.972H441.2V26H442.572V21.24C443.02 20.638 443.552 20.134 444.35 20.134C445.288 20.134 445.876 20.862 445.876 21.926V26H447.248V21.73C447.248 21.59 447.234 21.436 447.22 21.282C447.668 20.638 448.228 20.134 449.026 20.134C449.964 20.134 450.552 20.862 450.552 21.926V26H451.938V21.842C451.938 20.036 451 18.832 449.39 18.832ZM462.009 18.832C460.847 18.832 460.021 19.364 459.489 20.12C459.083 19.308 458.341 18.832 457.319 18.832C456.255 18.832 455.527 19.308 455.121 19.826L455.065 18.972H453.819V26H455.191V21.24C455.639 20.638 456.171 20.134 456.969 20.134C457.907 20.134 458.495 20.862 458.495 21.926V26H459.867V21.73C459.867 21.59 459.853 21.436 459.839 21.282C460.287 20.638 460.847 20.134 461.645 20.134C462.583 20.134 463.171 20.862 463.171 21.926V26H464.557V21.842C464.557 20.036 463.619 18.832 462.009 18.832ZM469.14 18.832C467.222 18.832 465.948 20.372 465.948 22.486C465.948 24.6 467.222 26.14 469.14 26.14C470.232 26.14 470.932 25.678 471.338 25.146L471.394 26H472.64V18.972H471.394L471.338 19.826C470.932 19.294 470.232 18.832 469.14 18.832ZM469.392 20.05C470.316 20.05 470.848 20.554 471.268 21.24V23.732C470.848 24.418 470.316 24.922 469.392 24.922C468.174 24.922 467.334 23.942 467.334 22.486C467.334 21.03 468.174 20.05 469.392 20.05ZM478.002 18.832C476.966 18.832 476.266 19.364 475.916 19.924L475.846 18.972H474.6V26H475.972V21.38C476.448 20.694 477.008 20.204 477.876 20.204H478.002V18.832ZM485.605 18.972H484.177L481.937 23.536L479.739 18.972H478.311L481.209 24.852L478.899 29.22H480.467L485.605 18.972Z" fill="#343434"/>
</svg>
